<?xml version="1.0" encoding="utf-8" ?>
<svg baseProfile="full" height="200mm" version="1.1" viewBox="0,0,200,200" width="200mm" xmlns="http://www.w3.org/2000/svg" xmlns:ev="http://www.w3.org/2001/xml-events" xmlns:xlink="http://www.w3.org/1999/xlink"><defs /><rect fill="#1a1a1a" height="200" width="200" x="0" y="0" /><text alignment-baseline="middle" fill="#e1ed5e" style="dominant-baseline: central; font-size:9.0px; font-family:Arial;" text-anchor="middle" x="100.0" y="100.0">2021</text><line stroke="#e1ed5e" stroke-width="0.3" x1="100.0" x2="100.0" y1="15.0" y2="10.0" /><path d="M 100.0 14.0 a86.0,86.0 0 0,1 42.46469731375804,11.215312516191453" fill="none" id="id13" stroke="none" /><text fill="#e1ed5e" style="font-size:6.75px; font-family:Arial;" text-anchor="middle"><textPath startOffset="22.20632615414155" xlink:href="#id13">January</textPath></text><path d="M 100.0 79.0 l 0.0 -2.503535982307426 a23.503535982307426,23.503535982307426 0 0,0 0.4045747357849335,0.0034823024797034775 l -0.043094256512405164 2.5031650564362815" fill="#ff1302" stroke="none" /><path d="M 100.36148047927253 79.00311137660856 l 0.10165002301660406 -5.904424538055591 a26.905299471895752,26.905299471895752 0 0,0 0.4629932667261292,0.011957750116345924 l -0.2032699249376011 5.901799995796885" fill="#ff4406" stroke="none" /><path d="M 100.72285384407766 79.0124445844662 l 0.11572806927682612 -3.3600834898779026 a24.362075853541768,24.362075853541768 0 0,0 0.41898033507300525,0.018042174576790134 l -0.17354923673916292 3.357593588776918" fill="#ff2003" stroke="none" /><path d="M 101.44485096284872 79.0497635885617 l 0.13287083411373382 -1.9266176639972166 a22.931194004180877,22.931194004180877 0 0,0 0.3935536804162975,0.0305473399986864 l -0.1660147038923725 1.9240450618100657" fill="#ff0b01" stroke="none" /><path d="M 101.80526077348638 79.07773832637324 l 0.21460163930934187 -2.48714851569515 a23.49638971371035,23.49638971371035 0 0,0 0.40265525057426693,0.038236967825010425 l -0.257382016973853 2.4830860033549613" fill="#ff1302" stroke="none" /><path d="M 102.16513564639614 79.11191278185805 l 0.29572412804052306 -2.852990476278575 a23.868276035816912,23.868276035816912 0 0,0 0.4082990229469684,0.04587715259458368 l -0.3447898544972167 2.8474773702133906" fill="#ff1902" stroke="none" /><path d="M 102.52436894288641 79.15227682838746 l 0.3338365809091915 -2.7570187959112586 a23.777156730139858,23.777156730139858 0 0,0 0.40589335646265146,0.05269660688618292 l -0.3812446658796891 2.7508638658609392" fill="#ff1702" stroke="none" /><path d="M 102.88285421437855 79.19881850522331 l 0.3541141591794727 -2.5551041943861508 a23.57952598007872,23.57952598007872 0 0,0 0.40156047225069297,0.059179575239042055 l -0.3980436118588214 2.5486301349861398" fill="#ff1402" stroke="none" /><path d="M 103.2404852339499 79.25152402106235 l 0.40353638040763695 -2.58379973708738 a23.61512192673407,23.61512192673407 0 0,0 0.4010868707016903,0.06618277031070052 l -0.44795245724820243 2.576470703837055" fill="#ff1502" stroke="none" /><path d="M 103.59715602781102 79.31037775812273 l 0.43419338003427477 -2.4973331552425297 a23.53479718706235,23.53479718706235 0 0,0 0.39852803350348076,0.07282845079567808 l -0.4771165346406564 2.489489223096113" fill="#ff1402" stroke="none" /><path d="M 103.95276090670814 79.375362276772 l 0.4704362118332376 -2.4546327668041554 a23.499306353625467,23.499306353625467 0 0,0 0.3966163583784509,0.07955751031773779 l -0.5126189796788138 2.446171300409209" fill="#ff1302" stroke="none" /><path d="M 104.307194497241 79.44645832069477 l 0.7652374770830602 -3.6516438693139874 a24.730963862680913,24.730963862680913 0 0,0 0.4159009441334255,0.09089983758465604 l -0.8279811453700137 3.637930533633461" fill="#ff2503" stroke="none" /><path d="M 104.66035177308747 79.52364482259891 l 0.39306991670860386 -1.7270454283206664 a22.771211413384812,22.771211413384812 0 0,0 0.38144632354273394,0.09027602074613304 l -0.42273992721386133 1.7200234954336648" fill="#ff0901" stroke="none" /><path d="M 105.01212808612495 79.60689891045804 l 0.6608956035829558 -2.6890196383471014 a23.76904489206146,23.76904489206146 0 0,0 0.39648024524455894,0.10107164251375067 l -0.7070847375125398 2.6772449996644827" fill="#ff1702" stroke="none" /><path d="M 105.36241919743992 79.69619591428918 l 0.6756134379595863 -2.558084770499455 a23.645798784982112,23.645798784982112 0 0,0 0.39263523558641317,0.10732204176771754 l -0.7195465627697103 2.546076187905444" fill="#ff1502" stroke="none" /><path d="M 105.71112130821622 79.79150937346287 l 0.6724777169800349 -2.3795256494719212 a23.47272493341444,23.47272493341444 0 0,0 0.3878697699324775,0.11322982193269034 l -0.7133377046359396 2.3675974986205275" fill="#ff1302" stroke="none" /><path d="M 106.0581310904928 79.89281104454417 l 1.0105579360185202 -3.3540838034765885 a24.503013774279797,24.503013774279797 0 0,0 0.4027999413120065,0.1251519024952853 l -1.068143250041245 3.3361917660987825" fill="#ff2203" stroke="none" /><path d="M 106.40334571778207 80.00007090966166 l 1.5352883832065731 -4.79525238065503 a26.035032851311577,26.035032851311577 0 0,0 0.42563209530182083,0.14032420986801886 l -1.6176033007508113 4.768114446527775" fill="#ff3805" stroke="none" /><path d="M 106.74666289553966 80.11325718540242 l 1.0709299832621348 -3.1567175475234466 a24.333430170843883,24.333430170843883 0 0,0 0.39549702953231936,0.1379811478160836 l -1.1251090168577278 3.1378155465351556" fill="#ff1f03" stroke="none" /><path d="M 107.08798089147638 80.2323363322302 l 1.1300380225979394 -3.1515620463043885 a24.3480336414414,24.3480336414414 0 0,0 0.39329920685051517,0.1448554170715886 l -1.1841195552210309 3.131643361426475" fill="#ff1f03" stroke="none" /><path d="M 107.4271985657038 80.35727306442388 l 1.22702592044598 -3.245117911548713 a24.469349055557913,24.469349055557913 0 0,0 0.3926944082486912,0.1523593295268169 l -1.282703493694338 3.2235158781313493" fill="#ff2103" stroke="none" /><path d="M 107.76421540070413 80.48803036053334 l 0.9212606247706 -2.3151868428237874 a23.49174863417984,23.49174863417984 0 0,0 0.3744317714016647,0.15274012097662032 l -0.9609762657606522 2.2989858356635877" fill="#ff1302" stroke="none" /><path d="M 108.09893153111575 80.62456947434976 l 2.332301027242602 -5.579666446694386 a27.04750409161036,27.04750409161036 0 0,0 0.4280154724226204,0.18325388807536516 l -2.4280002574555377 5.53869303065623" fill="#ff4606" stroke="none" /><path d="M 108.43124777332544 80.76684994638697 l 0.7842852506943546 -1.7890917592486466 a22.95344635899431,22.95344635899431 0 0,0 0.36049795485761427,0.16174492408145272 l -0.8149653240187491 1.7753265046506628" fill="#ff0b01" stroke="none" /><path d="M 108.76106565485865 80.91482961587045 l 0.9921186077943777 -2.1612385315843854 a23.37807723220607,23.37807723220607 0 0,0 0.3642769642046959,0.17103291911492058 l -1.0291737832986716 2.143840629829462" fill="#ff1101" stroke="none" /><path d="M 109.41281617654863 81.2277094730956 l 1.265621132960128 -2.5240700720481866 a23.823601703641046,23.823601703641046 0 0,0 0.3649997140956744,0.18696703022561384 l -1.308881334644558 2.5019105165100726" fill="#ff1802" stroke="none" /><path d="M 109.73455568895987 81.39251694778311 l 1.3477896098375974 -2.5762832043222708 a23.90753709886206,23.90753709886206 0 0,0 0.36300174425144466,0.19390296023260692 l -1.3919364006173534 2.5527015175879098" fill="#ff1902" stroke="none" /><path d="M 110.05341064243156 81.56283822128135 l 3.6826793279358396 -6.753743278099485 a28.692540237066034,28.692540237066034 0 0,0 0.431584870677166,0.24017651326481876 l -3.7983882876850417 6.689351367274487" fill="#ff5d08" stroke="none" /><path d="M 110.36928655335952 81.73862282372117 l 13.366113886921873 -23.5390974889298 a48.06920964918457,48.06920964918457 0 0,0 0.7160098021940076,0.4147590926656362 l -13.76932042158121 23.305534238874117" fill="#aeff20" stroke="none" /><line stroke="#e1ed5e" stroke-width="0.3" x1="143.23703022742887" x2="145.7803849466894" y1="26.81831364943548" y2="22.513508569990506" /><path d="M 143.74570117128098 25.957352633546492 a86.0,86.0 0 0,1 28.547481713284135,27.462654790039103" fill="none" id="id14" stroke="none" /><text fill="#e1ed5e" style="font-size:6.75px; font-family:Arial;" text-anchor="middle"><textPath startOffset="19.985693538727396" xlink:href="#id14">February</textPath></text><path d="M 110.68208982089419 81.91981866633111 l 1.4719559187711315 -2.4913879561744277 a23.893729112231544,23.893729112231544 0 0,0 0.35230499584127895,0.21225981802686675 l -1.514622980830048 2.465681528688946" fill="#ff1902" stroke="none" /><path d="M 110.99172775467656 82.1063720568725 l 1.4848037007849757 -2.417138195505368 a23.83675855265049,23.83675855265049 0 0,0 0.34776791857422673,0.2177722387068906 l -1.5261907717314656 2.391221615475533" fill="#ff1802" stroke="none" /><path d="M 111.2981086023043 82.29822771554956 l 1.6196698048884997 -2.537683701879882 a24.010509732197246,24.010509732197246 0 0,0 0.3464750560277723,0.22535701427115237 l -1.663111886700552 2.5094277634492017" fill="#ff1b02" stroke="none" /><path d="M 111.60114157652 82.49532879139004 l 1.8654570481578872 -2.8147412964839598 a24.37678820251643,24.37678820251643 0 0,0 0.3477700624247579,0.23481589856130416 l -1.913631804989187 2.7822134856239855" fill="#ff2003" stroke="none" /><path d="M 111.90073688211348 82.69761687909136 l 1.955036262031385 -2.842411083953719 a24.449850367195744,24.449850367195744 0 0,0 0.3447066350269475,0.24148902658619772 l -2.0036740366419834 2.808337214603586" fill="#ff2103" stroke="none" /><path d="M 112.19680574252982 82.90503203632743 l 10.616566676955514 -14.880114601964983 a39.27920399180046,39.27920399180046 0 0,0 0.547018437014143,0.39743215809379434 l -10.871130430323447 14.695163209054513" fill="#ffe815" stroke="none" /><path d="M 112.48926042617603 83.11751280151076 l 1.9546735107331414 -2.6422501730378425 a24.286675297391017,24.286675297391017 0 0,0 0.3339462335496631,0.251521379678128 l -1.9998658980411874 2.608212203853867" fill="#ff1f03" stroke="none" /><path d="M 112.77801427241765 83.33499621200491 l 1.7581887436749537 -2.2930184180964868 a23.88949149922872,23.88949149922872 0 0,0 0.3241774929083675,0.25302567523316627 l -1.7973987917427516 2.262414353640094" fill="#ff1902" stroke="none" /><path d="M 113.06298171725822 83.55741782278167 l 2.117424566924023 -2.665235870284649 a24.4039637249632,24.4039637249632 0 0,0 0.32666053641155224,0.2641367693938834 l -2.1629885019000663 2.628393003626638" fill="#ff2003" stroke="none" /><path d="M 113.34407831869373 83.78471172551755 l 1.8779599925809698 -2.282035665587004 a23.955405304310364,23.955405304310364 0 0,0 0.31614571567519995,0.2647629450139236 l -1.9169632452152872 2.249371563179261" fill="#ff1a02" stroke="none" /><path d="M 113.6212207817346 84.01681056812373 l 1.7624070391150166 -2.0680147553309305 a23.717124141401825,23.717124141401825 0 0,0 0.30844255625149414,0.26747834533787235 l -1.797743394013275 2.0373714165733845" fill="#ff1602" stroke="none" /><path d="M 113.89432698308785 84.25364557470405 l 1.6306668946343423 -1.848024658104214 a23.4646033470353,23.4646033470353 0 0,0 0.30055811813194533,0.2698440460544924 l -1.6622360003622778 1.8196816032804264" fill="#ff1302" stroke="none" /><path d="M 114.16331599549186 84.49514656593476 l 0.7950179509242973 -0.8703213859279588 a22.178775999541656,22.178775999541656 0 0,0 0.2796554777027951,0.2599092885697635 l -0.8098813124219392 0.8565075112835548" fill="#ff0000" stroke="none" /><path d="M 114.42810811169701 84.74124197986012 l 2.3713640455718923 -2.5078873729610245 a24.45150206607043,24.45150206607043 0 0,0 0.3033345717646126,0.2918076177058937 l -2.414181860948925 2.466696668492829" fill="#ff2103" stroke="none" /><path d="M 114.68862486808459 84.99185889309783 l 1.619914943520467 -1.6551523557769872 a23.315956334880912,23.315956334880912 0 0,0 0.28441491894564147,0.28319355089692266 l -1.6481656626334285 1.6270229542299457" fill="#ff1101" stroke="none" /><path d="M 114.94478906791727 85.2469230424477 l 1.1893572336225255 -1.1741001306818688 a22.671251550795812,22.671251550795812 0 0,0 0.2717697239005531,0.2800825897126871 l -1.2093912212261877 1.1534533454190672" fill="#ff0701" stroke="none" /><path d="M 115.19652480421416 85.50635884689758 l 1.600851355767104 -1.526807305543415 a23.212208311059815,23.212208311059815 0 0,0 0.27327697255822836,0.2915128206392318 l -1.6268956502957954 1.4990250680261283" fill="#ff0f01" stroke="none" /><path d="M 115.4437574822437 85.77008943001954 l 0.9212124804400443 -0.848807113662811 a22.25263959314844,22.25263959314844 0 0,0 0.2571306909693744,0.28393013118473337 l -0.9356868120254545 0.8328241952085286" fill="#ff0100" stroke="none" /><path d="M 115.9244219780498 86.31012108654704 l 23.41847637681988 -20.132354340906804 a51.8826282417721,51.8826282417721 0 0,0 0.5763650720570943,0.6822344504135965 l -23.761552062364093 19.7262609408641" fill="#84ff25" stroke="none" /><path d="M 116.15771136456269 86.58626213691792 l 5.328545628828946 -4.423628609516122 a27.92545223024761,27.92545223024761 0 0,0 0.3038575211457043,0.37249339240691054 l -5.40390164205106 4.331251047501111" fill="#ff5207" stroke="none" /><path d="M 116.38621287248628 86.86637796730983 l 1.7274409079848767 -1.384551521808596 a23.21382813405244,23.21382813405244 0 0,0 0.2472227588558982,0.3139477978827543 l -1.7510177474347388 1.3546113299728033" fill="#ff0f01" stroke="none" /><path d="M 116.60985879189232 87.15038557335679 l 2.88863869865066 -2.234690490786083 a24.652132954993824,24.652132954993824 0 0,0 0.25676260009767476,0.3378694843548622 l -2.9266772389724482 2.184636230550187" fill="#ff2403" stroke="none" /><path d="M 116.82858285166822 87.43820079747576 l 2.6749167230393547 -1.9967080445495509 a24.337966819841757,24.337966819841757 0 0,0 0.2477111164191915,0.33787768441242544 l -2.708890451972173 1.9503679164656318" fill="#ff1f03" stroke="none" /><path d="M 117.04232023915458 87.72973835380427 l 3.103930532632053 -2.234791931647232 a24.824745707777325,24.824745707777325 0 0,0 0.24669576884718347,0.3489336699494252 l -3.1419389212831197 2.1810317613660137" fill="#ff2603" stroke="none" /><path d="M 117.2510076193507 88.02491185347247 l 1.5775430662452452 -1.09507906378985 a22.920375036759566,22.920375036759566 0 0,0 0.22219179024673114,0.3260390351602118 l -1.5961593221607098 1.0677620053592318" fill="#ff0b01" stroke="none" /><path d="M 117.45458315368197 88.32363383020206 l 24.296003465636275 -16.25298240752349 a50.23106603498199,50.23106603498199 0 0,0 0.4745720243285088,0.7228057515674363 l -24.57217212532271 15.832358591978378" fill="#96ff23" stroke="none" /><path d="M 117.65298651832404 88.62581576622439 l 4.944804193281725 -3.186039588029561 a26.882341095719298,26.882341095719298 0 0,0 0.24728221180934412,0.39114107413076643 l -4.998914001337025 3.100450866184589" fill="#ff4406" stroke="none" /><line stroke="#e1ed5e" stroke-width="0.3" x1="172.23445277983987" x2="176.4835382374775" y1="55.19839476539836" y2="52.563006222186495" /><path d="M 173.08426987136738 54.67131705675599 a86.0,86.0 0 0,1 12.851231095245387,41.99856678651699" fill="none" id="id15" stroke="none" /><text fill="#e1ed5e" style="font-size:6.75px; font-family:Arial;" text-anchor="middle"><textPath startOffset="22.20632615414155" xlink:href="#id15">March</textPath></text><path d="M 117.84615892207809 88.93136811851018 l 3.286256215465537 -2.038217886328803 a24.867015912281268,24.867015912281268 0 0,0 0.22248187779441586,0.36570170942308394 l -3.3208538915461765 1.981348403698638" fill="#ff2703" stroke="none" /><path d="M 118.3937258080291 89.86733742301442 l 3.640281277275034 -2.0053436836513527 a25.15608602741083,25.15608602741083 0 0,0 0.2056712488699992,0.3810775881068575 l -3.6742606253634977 1.9423851122120366" fill="#ff2b04" stroke="none" /><path d="M 118.56541770881063 90.18545643968196 l 1.77288833627204 -0.9372312585061914 a23.005376644127118,23.005376644127118 0 0,0 0.18206078975488124,0.35168349702093205 l -1.7887585591870374 0.9065750392249146" fill="#ff0c01" stroke="none" /><path d="M 118.73160827565052 90.50648371742162 l 3.4948810969844675 -1.7712686551868024 a24.918110071310736,24.918110071310736 0 0,0 0.19061166090861464,0.3842614771105586 l -3.5248527708464903 1.7108475895772939" fill="#ff2803" stroke="none" /><path d="M 118.89224826269711 90.83032412892265 l 12.983888897148422 -6.301952582743257 a35.432462618993284,35.432462618993284 0 0,0 0.261595857194437,0.5509875905126334 l -13.090442948184615 6.077522576590084" fill="#ffb711" stroke="none" /><path d="M 119.04729006885535 91.15688171328212 l 1.7237573548969247 -0.8002918069630411 a22.90047530761476,22.90047530761476 0 0,0 0.16291799768551088,0.3589682123010748 l -1.7372776695457826 0.7705015858199036" fill="#ff0b01" stroke="none" /><path d="M 119.196687751892 91.48605970444005 l 3.515068456766592 -1.5589711809927842 a24.845269483264016,24.845269483264016 0 0,0 0.17002362100986562,0.3924379590750023 l -3.5413827876191384 1.498234077331179" fill="#ff2703" stroke="none" /><path d="M 119.34039704204932 91.81776055985345 l 2.334550541215742 -0.9876659445935998 a23.534878744161283,23.534878744161283 0 0,0 0.15463346992653632,0.37445721284391975 l -2.351205698028476 0.947334161296377" fill="#ff1402" stroke="none" /><path d="M 119.47837535516314 92.15188598940014 l 3.1749083010167856 -1.2792156360707387 a24.42292789340254,24.42292789340254 0 0,0 0.15375564753723572,0.3912913520520852 l -3.1964574984357217 1.224375279122869" fill="#ff2103" stroke="none" /><path d="M 119.61058180528143 92.48833698450437 l 5.344026920949574 -2.0469830918070433 a26.722653537475225,26.722653537475225 0 0,0 0.1608390852475086,0.4309687843011476 l -5.378470594698707 1.9546911704765624" fill="#ff4106" stroke="none" /><path d="M 119.7369772167798 92.82701384747503 l 1.4727824993431533 -0.5352515918439696 a22.567029851962932,22.567029851962932 0 0,0 0.12954218685367577,0.3662332065738292 l -1.4817777670066385 0.5098207588435258" fill="#ff0600" stroke="none" /><path d="M 119.85752413597 93.16781622104841 l 1.6819265499237674 -0.5786839896602167 a22.778693925111213,22.778693925111213 0 0,0 0.12437460427608538,0.37186423608705776 l -1.6916384479716229 0.549646650650845" fill="#ff0901" stroke="none" /><path d="M 119.97218684219823 93.5106431181261 l 2.7202285037499796 -0.8838558191225367 a23.860217512989287,23.860217512989287 0 0,0 0.12355561003025689,0.39170504841107123 l -2.7350395975484423 0.8369006042850463" fill="#ff1802" stroke="none" /><path d="M 120.08093135843002 93.85539295169968 l 1.7950386754756713 -0.5492677157461193 a22.87719441454912,22.87719441454912 0 0,0 0.11198288935451199,0.37755063322710236 l -1.8042274619418857 0.5182876957724871" fill="#ff0a01" stroke="none" /><path d="M 120.18372546131832 94.20196356495316 l 4.994953575460362 -1.434865078668935 a26.196960555458148,26.196960555458148 0 0,0 0.12077201679616693,0.43448120220217373 l -5.018912362822892 1.3486725730478093" fill="#ff3a05" stroke="none" /><path d="M 120.28053869075195 94.5502522615342 l 4.3697022687380676 -1.1742180728011615 a25.524719438805846,25.524719438805846 0 0,0 0.11036848347737904,0.42529478897623363 l -4.389267084085749 1.0988268582760774" fill="#ff3004" stroke="none" /><path d="M 120.45610955862082 95.25157060432595 l 17.088048285115942 -3.9666091227765587 a38.54238815347979,38.54238815347979 0 0,0 0.1444524898107158,0.6475521875345965 l -17.153795161928695 3.6718787656919982" fill="#ffde14" stroke="none" /><path d="M 120.53481517161879 95.60439243477599 l 4.22566270319726 -0.9045299308040767 a25.321388628312988,25.321388628312988 0 0,0 0.08756462240943239,0.42699619681107537 l -4.24060662152169 0.8316580778295896" fill="#ff2d04" stroke="none" /><path d="M 120.6074358757038 95.95851677861258 l 3.7669051451057523 -0.7387568270175653 a24.83866331184297,24.83866331184297 0 0,0 0.07867265282066535,0.4202724572011501 l -3.7790635218362767 0.6738062923538525" fill="#ff2703" stroke="none" /><path d="M 120.67395015179393 96.31383870115 l 2.7987972342750838 -0.49902500357039853 a23.842937198176262,23.842937198176262 0 0,0 0.06856336158514732,0.40466484122490437 l -2.8069724573804544 0.45077437402965687" fill="#ff1802" stroke="none" /><path d="M 120.73433829027371 96.67025291283417 l 2.6843605743624575 -0.43108401523375517 a23.718754332664428,23.718754332664428 0 0,0 0.06126679226229127,0.40367161197373336 l -2.6913832600640486 0.3848132908679391" fill="#ff1602" stroke="none" /><path d="M 120.87857604477298 97.74499172005257 l 3.726497758664571 -0.4024835449972141 a24.74817002673646,24.74817002673646 0 0,0 0.042098846069521044,0.423929634709723 l -3.732873730416321 0.3382783795830561" fill="#ff2503" stroke="none" /><path d="M 120.91429891909075 98.10471618934814 l 2.1667043995100848 -0.19634986507298915 a23.175582961959975,23.175582961959975 0 0,0 0.03258433570171386,0.3976114286567112 l -2.1697632190312937 0.15902451920850919" fill="#ff0f01" stroke="none" /><path d="M 120.94382443527127 98.46500227214037 l 13.398128342648507 -0.9819647136127666 a34.43406482732839,34.43406482732839 0 0,0 0.03823724005185434,0.5915131793991472 l -13.413046173704776 0.7511924699605842" fill="#ffaa0f" stroke="none" /><path d="M 120.96714384426684 98.82574320788733 l 2.89801035107623 -0.16230195031044173 a23.902551621938798,23.902551621938798 0 0,0 0.019470781536379017,0.4109974244786906 l -2.9003747408461056 0.11239341920875134" fill="#ff1902" stroke="none" /><path d="M 120.98425023603335 99.18683210126433 l 12.769416790138683 -0.4948320622619424 a33.77900089717964,33.77900089717964 0 0,0 0.017514099178644358,0.5812076863956545 l -12.776042583772973 0.2749542284412888" fill="#ffa10e" stroke="none" /><line stroke="#e1ed5e" stroke-width="0.3" x1="184.98032266829074" x2="189.97916517819016" y1="98.17113171792111" y2="98.06355123074" /><path d="M 185.9800911702706 98.14961562048488 a86.0,86.0 0 0,1 -9.607161424134198,41.387399972396054" fill="none" id="id16" stroke="none" /><text fill="#e1ed5e" style="font-size:6.75px; font-family:Arial;" text-anchor="middle"><textPath startOffset="21.466115282336823" xlink:href="#id16">April</textPath></text><path d="M 120.99513854157772 99.54816195383933 l 3.0877850308861725 -0.06645246720124388 a24.08850001252418,24.08850001252418 0 0,0 0.005353374195398057,0.4146247310589324 l -3.088471412199286 0.013291478081848768" fill="#ff1c02" stroke="none" /><path d="M 120.99980553446 99.90962569577887 l 3.7902729670011364 -0.01631173591768665 a24.79030806625375,24.79030806625375 0 0,0 -0.0018364928310822034,0.426736257064832 l -3.789992176880551 -0.048933999350830065" fill="#ff2603" stroke="none" /><path d="M 120.99824983174949 100.27111621757518 l 51.377318634782796 0.6633516797364849 a72.38160084651906,72.38160084651906 0 0,0 -0.026808550197287458,1.2456879854927063 l -51.3582880219005 -1.547629481019306" fill="#3fffba" stroke="none" /><path d="M 120.9904718944345 100.63252640178507 l 7.593289250827574 0.22881600526630813 a28.596736036680465,28.596736036680465 0 0,0 -0.019061586282412536,0.4918948436944522 l -7.588225531693959 -0.3594880959747665" fill="#ff5b08" stroke="none" /><path d="M 120.9764740272857 100.99374915477107 l 5.451211970157092 0.25824822993488 a26.457325727116576,26.457325727116576 0 0,0 -0.025466623747727533,0.4547236745258492 l -5.445958995521836 -0.3520436207961526" fill="#ff3e05" stroke="none" /><path d="M 120.95626037817324 101.35467743843564 l 3.933477441482375 0.2542721386551229 a24.941687342134962,24.941687342134962 0 0,0 -0.03138310534749213,0.42819753847324404 l -3.928517777470545 -0.32194281362513716" fill="#ff2803" stroke="none" /><path d="M 120.92983693683757 101.71520430193887 l 3.6181808811638043 0.2965106432168326 a24.63031010388371,24.63031010388371 0 0,0 -0.03826541956952555,0.4222557163437298 l -3.6125408653172033 -0.35874774810913296" fill="#ff2403" stroke="none" /><path d="M 120.89721153311464 102.0752229133903 l 3.6291283886020103 0.36039499220878135 a24.64697921729288,24.64697921729288 0 0,0 -0.045559000388891206,0.42181976119638886 l -3.622387086712067 -0.4228110752899616" fill="#ff2403" stroke="none" /><path d="M 120.8583938346157 102.4346265915055 l 5.632593221060747 0.6574456951891576 a26.670832499383334,26.670832499383334 0 0,0 -0.057149867123922074,0.45554067123350217 l -5.620441844689976 -0.7543041207100547" fill="#ff4106" stroke="none" /><path d="M 120.81339534386255 102.79330883721812 l 21.49571389519282 2.8848809429577345 a42.68843594911875,42.68843594911875 0 0,0 -0.10400925409303291,0.7274404808793532 l -21.44287059008319 -3.254466895817497" fill="#edff1a" stroke="none" /><path d="M 120.76222939487914 103.15116336523771 l 3.5781934827777175 0.5430761794512523 a24.61917122237679,24.61917122237679 0 0,0 -0.06719655731169961,0.41843302652407643 l -3.5683151711047296 -0.6045884356685336" fill="#ff2303" stroke="none" /><path d="M 120.70491114924044 103.5080841355445 l 3.758085359776884 0.6367416665363944 a24.811646038298008,24.811646038298008 0 0,0 -0.07497081964527537,0.4204761708797471 l -3.7465680977924203 -0.7013365881493598" fill="#ff2603" stroke="none" /><path d="M 120.64145759157962 103.86396538481128 l 3.1713580778404187 0.5936604903626506 a24.226444612216564,24.226444612216564 0 0,0 -0.08025882740158416,0.4092380318158367 l -3.1606693174631704 -0.6481622492464322" fill="#ff1e03" stroke="none" /><path d="M 120.5718875245553 104.21870165774334 l 3.891713541798119 0.7980783654707847 a24.972702275384776,24.972702275384776 0 0,0 -0.08998016777691793,0.4203573879134719 l -3.877399335296758 -0.8649495728004256" fill="#ff2803" stroke="none" /><path d="M 120.49622156327973 104.57218783832717 l 3.468241606105012 0.7736768478451285 a24.55348782229649,24.55348782229649 0 0,0 -0.09557086662026561,0.4117167920781392 l -3.4544101735541934 -0.8332622972718325" fill="#ff2203" stroke="none" /><path d="M 120.41448212921028 104.9243191809786 l 3.6869217264481295 0.8893480256517091 a24.79266815417403,24.79266815417403 0 0,0 -0.1036436072558875,0.41400469089178965 l -3.671066804897181 -0.9526805559408946" fill="#ff2603" stroke="none" /><path d="M 120.32669344350535 105.2749913415812 l 6.678484694292927 1.733137218563894 a27.899704517606263,27.899704517606263 0 0,0 -0.12463452144250722,0.4638114194675935 l -6.647662096508642 -1.8478395712070357" fill="#ff5207" stroke="none" /><path d="M 120.23288151984713 105.62410040840565 l 23.31935914768869 6.48204345869491 a45.203499715109416,45.203499715109416 0 0,0 -0.2148401004802394,0.747886574145025 l -23.20432641032235 -6.882487508344516" fill="#cfff1d" stroke="none" /><path d="M 120.13307415673323 105.97154293290107 l 3.5370375858212832 1.049098197055652 a24.68934166357331,24.68934166357331 0 0,0 -0.12435577868833124,0.4064018799306674 l -3.5184550346268195 -1.1098270495383766" fill="#ff2403" stroke="none" /><path d="M 120.02730092923936 106.31721596034902 l 3.5171609922128666 1.1094188694536176 a24.68798477125971,24.68798477125971 0 0,0 -0.1313256764639332,0.4041788724614537 l -3.4975430647326866 -1.1697966418928665" fill="#ff2403" stroke="none" /><path d="M 119.9155931802556 106.66101706037122 l 2.2360080609171047 0.747860618867354 a23.35775901095488,23.35775901095488 0 0,0 -0.13081364896698414,0.3802056964098211 l -2.2228035810068896 -0.7862390183664755" fill="#ff1101" stroke="none" /><path d="M 119.79798401119884 107.00284435728193 l 3.7251756633258517 1.317650593062871 a24.95134620199675,24.95134620199675 0 0,0 -0.14670885291457036,0.40367975427576663 l -3.7019425494060543 -1.3815781443447688" fill="#ff2803" stroke="none" /><path d="M 119.67450827220406 107.3425965602758 l 4.699305740769122 1.753797639588487 a26.01590277077335,26.01590277077335 0 0,0 -0.16019071665714912,0.4182074125225428 l -4.668420744518467 -1.8344286189441736" fill="#ff3705" stroke="none" /><path d="M 119.41010516605496 108.01547362559984 l 4.386950799666128 1.811607311279438 a25.7462889049206,25.7462889049206 0 0,0 -0.17268283477130236,0.40817121171460397 l -4.355116983702514 -1.8868530486602053" fill="#ff3304" stroke="none" /><path d="M 119.26925614724726 108.34839909993367 l 4.495295110462075 1.9475851775149604 a25.89905768018914,25.89905768018914 0 0,0 -0.18074941905193886,0.40754222350906355 l -4.461104606678862 -2.0246757375167115" fill="#ff3605" stroke="none" /><path d="M 119.12269723197855 108.67885076344098 l 22.74553607630007 10.323078943620686 a45.97849815890645,45.97849815890645 0 0,0 -0.33329021425564964,0.7178774706172694 l -22.564471245204587 -10.713076481516786" fill="#c6ff1e" stroke="none" /><path d="M 118.97047184881838 109.00673069616215 l 3.3524000093269266 1.5916401189409446 a24.711051615210643,24.711051615210643 0 0,0 -0.18574090586127162,0.3826812807132676 l -3.3245058468509407 -1.6491103556194875" fill="#ff2503" stroke="none" /><path d="M 118.81262510543309 109.33194174019688 l 14.185874756965296 7.03685721816132 a36.83528977092286,36.83528977092286 0 0,0 -0.2866510501510691,0.5655897165402335 l -14.06264503702796 -7.280001146404247" fill="#ffc912" stroke="none" /><line stroke="#e1ed5e" stroke-width="0.3" x1="174.80103733775053" x2="179.2010983576182" y1="140.37084112569926" y2="142.7455964860345" /><path d="M 175.68104954172406 140.8457921977663 a86.0,86.0 0 0,1 -30.038265399797805,32.042727171017184" fill="none" id="id17" stroke="none" /><text fill="#e1ed5e" style="font-size:6.75px; font-family:Arial;" text-anchor="middle"><textPath startOffset="22.206326154141568" xlink:href="#id17">May</textPath></text><path d="M 118.48025628344425 109.97397251340804 l 13.892455362772454 7.497892118312987 a36.78666216223319,36.78666216223319 0 0,0 -0.30554579517290925,0.5546543700144254 l -13.761333158148037 -7.735917006725219" fill="#ffc812" stroke="none" /><path d="M 118.30583269289576 110.29060199501023 l 5.17826979879602 2.9109581856318267 a26.940383461328057,26.940383461328057 0 0,0 -0.2307225804004398,0.4022842665923515 l -5.127395222243198 -2.999662298082492" fill="#ff4406" stroke="none" /><path d="M 118.12598468904814 110.60418214915192 l 3.111015615982266 1.8200267089856208 a24.604291245766156,24.604291245766156 0 0,0 -0.2170088227907896,0.36371926932152876 l -3.079225917493249 -1.8733080721932538" fill="#ff2303" stroke="none" /><path d="M 117.94076556474637 110.91462005526583 l 3.207096222198915 1.951100504582866 a24.7539658172959,24.7539658172959 0 0,0 -0.2245955141259716,0.36211948153961504 l -3.173036068404981 -2.0060163174877546" fill="#ff2503" stroke="none" /><path d="M 117.75023020441432 111.22182372390056 l 3.124033221890416 1.9750363640323314 a24.695991370488446,24.695991370488446 0 0,0 -0.2302550002106653,0.35736087361988733 l -3.0895733583027005 -2.028518837573672" fill="#ff2403" stroke="none" /><path d="M 117.55443506779139 111.5257021239791 l 3.2305489625702615 2.121079083190297 a24.864637509095928,24.864637509095928 0 0,0 -0.23798642497220884,0.3557574149112858 l -3.1935594321873317 -2.1763734123073895" fill="#ff2703" stroke="none" /><path d="M 117.35343817320211 111.8261652097733 l 4.252424062998209 2.8979772774188293 a26.146006481923827,26.146006481923827 0 0,0 -0.25665305035793734,0.369727861129624 l -4.201910105478135 -2.970746400735473" fill="#ff3905" stroke="none" /><path d="M 116.93607887273984 112.41649034213515 l 2.929296410421368 2.1475797829326018 a24.6321999372513,24.6321999372513 0 0,0 -0.2536397958544978,0.33979195577015053 l -2.891895347871778 -2.197684618212067" fill="#ff2403" stroke="none" /><path d="M 116.71984013943494 112.70617746262583 l 2.9799537051267793 2.2646042242022215 a24.742800606093432,24.742800606093432 0 0,0 -0.2606161341428815,0.33688148478809815 l -2.940530753765829 -2.3155637031035723" fill="#ff2503" stroke="none" /><path d="M 116.498646956653 112.99209946851258 l 2.913104324715167 2.2939663627138733 a24.70789137919882,24.70789137919882 0 0,0 -0.2660005557967211,0.3318765928116135 l -2.873185856863592 -2.343770789103737" fill="#ff2503" stroke="none" /><path d="M 116.27256486870786 113.27417163493432 l 2.788494661323531 2.2746848475427726 a24.598596064004756,24.598596064004756 0 0,0 -0.2704721061038875,0.3258010755242113 l -2.7489265553261 -2.3223471801807545" fill="#ff2303" stroke="none" /><path d="M 116.0416608686014 113.55231037782055 l 48.12498260580419 40.656931133461654 a84.0,84.0 0 0,0 -0.9426299617168756,1.096491603353888 l -47.418010134516535 -41.47929983597707" fill="#4dd2ff" stroke="none" /><line stroke="#e1ed5e" stroke-width="0.3" x1="143.8653032363475" x2="146.44561519142675" y1="172.8068346515853" y2="177.08958963109032" /><path d="M 144.38136562736335 173.6633856474863 a86.0,86.0 0 0,1 -40.68145358897372,12.25698825130547" fill="none" id="id18" stroke="none" /><text fill="#e1ed5e" style="font-size:6.75px; font-family:Arial;" text-anchor="middle"><textPath startOffset="21.466115282336833" xlink:href="#id18">June</textPath></text><line stroke="#e1ed5e" stroke-width="0.3" x1="102.19456741930631" x2="102.32365962044197" y1="184.97166512339345" y2="189.96999836594603" /><path d="M 102.22038585953345 185.97133177190398 a86.0,86.0 0 0,1 -42.740103519485714,-10.115201625700543" fill="none" id="id19" stroke="none" /><text fill="#e1ed5e" style="font-size:6.75px; font-family:Arial;" text-anchor="middle"><textPath startOffset="22.20632615414155" xlink:href="#id19">July</textPath></text><line stroke="#e1ed5e" stroke-width="0.3" x1="58.666819895761336" x2="56.23545636021788" y1="174.27360380694188" y2="178.64263932499728" /><path d="M 58.180547188652646 175.14741091055294 a86.0,86.0 0 0,1 -31.652253787137756,-30.449443065178592" fill="none" id="id20" stroke="none" /><text fill="#e1ed5e" style="font-size:6.75px; font-family:Arial;" text-anchor="middle"><textPath startOffset="22.20632615414155" xlink:href="#id20">August</textPath></text><line stroke="#e1ed5e" stroke-width="0.3" x1="26.63291911575756" x2="22.317208475507996" y1="142.92168965132927" y2="145.44649492493687" /><path d="M 25.769776987707644 143.4266507060508 a86.0,86.0 0 0,1 -11.730757126820373,-40.83630448921669" fill="none" id="id21" stroke="none" /><text fill="#e1ed5e" style="font-size:6.75px; font-family:Arial;" text-anchor="middle"><textPath startOffset="21.46611528233685" xlink:href="#id21">September</textPath></text><line stroke="#e1ed5e" stroke-width="0.3" x1="15.007084014347285" x2="10.007500721073583" y1="101.09737516637583" y2="101.16192664675087" /><path d="M 14.007167355692545 101.11028546245083 a86.0,86.0 0 0,1 10.666146001902534,-42.60595125391555" fill="none" id="id22" stroke="none" /><text fill="#e1ed5e" style="font-size:6.75px; font-family:Arial;" text-anchor="middle"><textPath startOffset="22.20632615414155" xlink:href="#id22">October</textPath></text><line stroke="#e1ed5e" stroke-width="0.3" x1="26.266209847984243" x2="21.928928074336255" y1="57.711370442889674" y2="55.22380399835377" /><path d="M 25.398753493254645 57.213857153982495 a86.0,86.0 0 0,1 29.58750427330803,-30.492523968695096" fill="none" id="id23" stroke="none" /><text fill="#e1ed5e" style="font-size:6.75px; font-family:Arial;" text-anchor="middle"><textPath startOffset="21.46611528233685" xlink:href="#id23">November</textPath></text><line stroke="#e1ed5e" stroke-width="0.3" x1="56.76296977257108" x2="54.21961505331056" y1="26.818313649435495" y2="22.513508569990535" /><path d="M 56.25429882871898 25.957352633546506 a86.0,86.0 0 0,1 42.26535254187918,-11.944610805530505" fill="none" id="id24" stroke="none" /><text fill="#e1ed5e" style="font-size:6.75px; font-family:Arial;" text-anchor="middle"><textPath startOffset="22.20632615414155" xlink:href="#id24">December</textPath></text></svg>