<?xml version="1.0" encoding="utf-8" ?>
<svg baseProfile="full" height="200mm" version="1.1" viewBox="0,0,200,200" width="200mm" xmlns="http://www.w3.org/2000/svg" xmlns:ev="http://www.w3.org/2001/xml-events" xmlns:xlink="http://www.w3.org/1999/xlink"><defs /><rect fill="#1a1a1a" height="200" width="200" x="0" y="0" /><text alignment-baseline="middle" fill="#e1ed5e" style="dominant-baseline: central; font-size:9.0px; font-family:Arial;" text-anchor="middle" x="100.0" y="100.0">2021</text><line stroke="#e1ed5e" stroke-width="0.3" x1="100.0" x2="100.0" y1="15.0" y2="10.0" /><path d="M 100.0 14.0 a86.0,86.0 0 0,1 42.46469731375804,11.215312516191453" fill="none" id="id13" stroke="none" /><text fill="#e1ed5e" style="font-size:6.75px; font-family:Arial;" text-anchor="middle"><textPath startOffset="22.20632615414155" xlink:href="#id13">January</textPath></text><path d="M 100.0 79.0 l 0.0 -2.573525433423253 a23.573525433423253,23.573525433423253 0 0,0 0.40577948913414164,0.003492672172134318 l -0.044299009861613274 2.5731441378596775" fill="#ff1802" stroke="none" /><path d="M 100.36148047927253 79.00311137660856 l 0.10622793598470824 -6.170336348597355 a27.171250685979732,27.171250685979732 0 0,0 0.46756982315982154,0.012075949066871523 l -0.21242439433939758 6.167593607388125" fill="#ff4b06" stroke="none" /><path d="M 100.72285384407766 79.0124445844662 l 0.11753212289678744 -3.412462924021805 a24.414486346104795,24.414486346104795 0 0,0 0.4198816936381542,0.018080988972663553 l -0.17625464892427317 3.4099342085249464" fill="#ff2403" stroke="none" /><path d="M 101.44485096284872 79.0497635885617 l 0.12909145933865504 -1.871816998003808 a22.87626316887855,22.87626316887855 0 0,0 0.3926109369901317,0.030474164964622054 l -0.16129258569112795 1.8693175708507215" fill="#ff0e01" stroke="none" /><path d="M 101.80526077348638 79.07773832637324 l 0.21414143192793708 -2.4818148933180955 a23.49103627383538,23.49103627383538 0 0,0 0.40256350921737954,0.0382282558777391 l -0.25683006823556087 2.4777610929251783" fill="#ff1602" stroke="none" /><path d="M 102.16513564639614 79.11191278185805 l 0.2721577365114846 -2.625634355430074 a23.639701801711276,23.639701801711276 0 0,0 0.40438895267980135,0.04543781064120931 l -0.3173133927010112 2.620560591318264" fill="#ff1902" stroke="none" /><path d="M 102.52436894288641 79.15227682838746 l 0.33566417368051066 -2.772112131722678 a23.792360311338182,23.792360311338182 0 0,0 0.4061528926499626,0.05273030213203436 l -0.3833317948383194 2.765923506426507" fill="#ff1b02" stroke="none" /><path d="M 102.88285421437855 79.19881850522331 l 0.3559977457818552 -2.5686951788285377 a23.593246867681273,23.593246867681273 0 0,0 0.4017941396327275,0.05921401173708309 l -0.40016086584323846 2.5621866829304856" fill="#ff1802" stroke="none" /><path d="M 103.2404852339499 79.25152402106235 l 0.4135659355017556 -2.6480178920629225 a23.68011856821537,23.68011856821537 0 0,0 0.40219079468813995,0.06636492722725043 l -0.45908593632877065 2.6405067018960473" fill="#ff1902" stroke="none" /><path d="M 103.59715602781102 79.31037775812273 l 0.4888886952906468 -2.811922070014556 a23.85410544378058,23.85410544378058 0 0,0 0.40393506083496317,0.07381655047965754 l -0.5372188772285108 2.80309003818416" fill="#ff1c02" stroke="none" /><path d="M 103.95276090670814 79.375362276772 l 0.469594485018862 -2.4502408212708544 a23.494834475988778,23.494834475988778 0 0,0 0.39654088296667966,0.07954237066017229 l -0.511701777452667 2.441794494533474" fill="#ff1702" stroke="none" /><path d="M 104.307194497241 79.44645832069477 l 0.6524861834130211 -3.1136049172009175 a24.181237777966718,24.181237777966718 0 0,0 0.4066561933458344,0.0888792931330112 l -0.7059851009123835 3.1019121259720355" fill="#ff2003" stroke="none" /><path d="M 104.66035177308747 79.52364482259891 l 0.3878325315573935 -1.7040337408389763 a22.747611244657087,22.747611244657087 0 0,0 0.381050991145491,0.09018245834038312 l -0.41710720966540804 1.6971053703577244" fill="#ff0c01" stroke="none" /><path d="M 105.01212808612495 79.60689891045804 l 0.6696796937259464 -2.7247599137725347 a23.80584879847268,23.80584879847268 0 0,0 0.39709415387682173,0.10122814149336036 l -0.7164827362877931 2.7128287761103063" fill="#ff1b02" stroke="none" /><path d="M 105.36241919743992 79.69619591428918 l 0.6694309552684946 -2.5346759483426284 a23.62158729913354,23.62158729913354 0 0,0 0.39223320719496424,0.10721215222162409 l -0.7129620516871698 2.5227772552947108" fill="#ff1802" stroke="none" /><path d="M 105.71112130821622 79.79150937346287 l 0.6753652453134882 -2.389743010671464 a23.48334247972978,23.48334247972978 0 0,0 0.3880452171912965,0.1132810397986202 l -0.7164006802282118 2.3777636419541404" fill="#ff1602" stroke="none" /><path d="M 106.0581310904928 79.89281104454417 l 1.128712464325201 -3.7462435951875217 a24.912586472093185,24.912586472093185 0 0,0 0.40953282160836435,0.1272438411773456 l -1.1930306586442836 3.7262596191276556" fill="#ff2b04" stroke="none" /><path d="M 106.40334571778207 80.00007090966166 l 1.6962033547592006 -5.297847143216294 a26.562759223045827,26.562759223045827 0 0,0 0.4342595966623947,0.1431685614216753 l -1.7871457736640128 5.267864857535382" fill="#ff4206" stroke="none" /><path d="M 106.74666289553966 80.11325718540242 l 1.0815613423169508 -3.1880549815358292 a24.36652187019331,24.36652187019331 0 0,0 0.39603487679441873,0.13816879216492223 l -1.136278223174643 3.1689653361986996" fill="#ff2303" stroke="none" /><path d="M 107.08798089147638 80.2323363322302 l 1.1528124806782765 -3.2150777123933323 a24.415508938992247,24.415508938992247 0 0,0 0.3943891503506581,0.14525685246110284 l -1.207983956801511 3.1947575921259044" fill="#ff2403" stroke="none" /><path d="M 107.4271985657038 80.35727306442388 l 1.2313545136709554 -3.2565657507280767 a24.48158791748147,24.48158791748147 0 0,0 0.3928908226539047,0.15243553526455886 l -1.287228501324527 3.234887511572971" fill="#ff2503" stroke="none" /><path d="M 107.76421540070413 80.48803036053334 l 0.9314573970324634 -2.340811983359686 a23.519328010388246,23.519328010388246 0 0,0 0.3748713553104097,0.152919438290292 l -0.9716126219312606 2.324431658885815" fill="#ff1702" stroke="none" /><path d="M 108.09893153111575 80.62456947434976 l 2.3635556399826174 -5.654438233000231 a27.128545259203722,27.128545259203722 0 0,0 0.42929791510256854,0.1838029631029666 l -2.460537312875501 5.612915741934474" fill="#ff4a06" stroke="none" /><path d="M 108.43124777332544 80.76684994638697 l 0.8540990782131331 -1.9483493041085966 a23.12733407019795,23.12733407019795 0 0,0 0.3632289680258926,0.1629702500829361 l -0.887510164705806 1.9333587235091292" fill="#ff1101" stroke="none" /><path d="M 108.76106565485865 80.91482961587045 l 0.9851653335601741 -2.1460914674354306 a23.36141045162587,23.36141045162587 0 0,0 0.3640172625973945,0.17091098572807417 l -1.0219608074571667 2.128815499067353" fill="#ff1502" stroke="none" /><path d="M 109.41281617654863 81.2277094730956 l 1.2571835773430144 -2.507242775901047 a23.804777510685824,23.804777510685824 0 0,0 0.36471130996886736,0.18681929843018621 l -1.3001553749006374 2.48523095215836" fill="#ff1b02" stroke="none" /><path d="M 109.73455568895987 81.39251694778311 l 1.3434946398151195 -2.5680734221342996 a23.898271717538666,23.898271717538666 0 0,0 0.36286106269283663,0.1938278130161094 l -1.3875007490362672 2.544566882616436" fill="#ff1c02" stroke="none" /><path d="M 110.05341064243156 81.56283822128135 l 3.766223323859629 -6.906956373960351 a28.86705055767254,28.86705055767254 0 0,0 0.43420980431944745,0.24163728599479303 l -3.8845572172511127 6.841103690405378" fill="#ff6209" stroke="none" /><path d="M 110.36928655335952 81.73862282372117 l 13.459258126407985 -23.703134048272684 a48.257846448750556,48.257846448750556 0 0,0 0.7188196215883659,0.4163867214201411 l -13.865274480461679 23.467943169462494" fill="#abff21" stroke="none" /><line stroke="#e1ed5e" stroke-width="0.3" x1="143.23703022742887" x2="145.7803849466894" y1="26.81831364943548" y2="22.513508569990506" /><path d="M 143.74570117128098 25.957352633546492 a86.0,86.0 0 0,1 28.547481713284135,27.462654790039103" fill="none" id="id14" stroke="none" /><text fill="#e1ed5e" style="font-size:6.75px; font-family:Arial;" text-anchor="middle"><textPath startOffset="19.985693538727396" xlink:href="#id14">February</textPath></text><path d="M 110.68208982089419 81.91981866633111 l 1.5322028926490938 -2.5933601573805753 a24.012169087241162,24.012169087241162 0 0,0 0.3540513534193367,0.21331197892751824 l -1.576616312286068 2.5666015689944426" fill="#ff1e03" stroke="none" /><path d="M 110.99172775467656 82.1063720568725 l 1.4862115455674763 -2.4194300509171813 a23.83944827906042,23.83944827906042 0 0,0 0.34780716051029154,0.21779681200365433 l -1.527637858450031 2.393488897590583" fill="#ff1b02" stroke="none" /><path d="M 111.2981086023043 82.29822771554956 l 1.7869205304172402 -2.7997305950310993 a24.321381698447173,24.321381698447173 0 0,0 0.35096098252934393,0.22827478565193826 l -1.8348485387308642 2.7685568852196334" fill="#ff2203" stroke="none" /><path d="M 111.60114157652 82.49532879139004 l 1.8805260665687287 -2.8374785599660415 a24.404065637632655,24.404065637632655 0 0,0 0.3481592144013984,0.23507865571306885 l -1.929089975376669 2.8046879919543026" fill="#ff2403" stroke="none" /><path d="M 111.90073688211348 82.69761687909136 l 1.9305249405973877 -2.806774276044103 a24.406597772401586,24.406597772401586 0 0,0 0.34409683757691145,0.24106182450285973 l -1.9785529177579502 2.773127608777308" fill="#ff2403" stroke="none" /><path d="M 112.19680574252982 82.90503203632743 l 10.682002384652318 -14.971828887686243 a39.39186872473469,39.39186872473469 0 0,0 0.5485874526726366,0.39857211469679626 l -10.938135153678743 14.785737538172771" fill="#ffeb16" stroke="none" /><path d="M 112.48926042617603 83.11751280151076 l 2.154983142674379 -2.913020793681987 a24.623484854340415,24.623484854340415 0 0,0 0.33857742664585705,0.2550094983034794 l -2.2048067230786192 2.8754947058726605" fill="#ff2703" stroke="none" /><path d="M 112.77801427241765 83.33499621200491 l 1.7679757614279712 -2.3057825835176566 a23.905575952449045,23.905575952449045 0 0,0 0.3243957569815034,0.25319603380429617 l -1.807404073568905 2.2750081604901338" fill="#ff1c02" stroke="none" /><path d="M 113.06298171725822 83.55741782278167 l 2.1194568441182153 -2.66779392980702 a24.407230806093818,24.407230806093818 0 0,0 0.32670426809738223,0.26417213070915635 l -2.1650645107800885 2.6309157018337364" fill="#ff2403" stroke="none" /><path d="M 113.34407831869373 83.78471172551755 l 1.8699676815321193 -2.272323670157924 a23.942827550491973,23.942827550491973 0 0,0 0.31597972378602135,0.2646239315804077 l -1.9088049422772582 2.2397985811836967" fill="#ff1d02" stroke="none" /><path d="M 113.6212207817346 84.01681056812373 l 1.807322493994225 -2.1207187115516484 a23.786370838711672,23.786370838711672 0 0,0 0.30934311351142507,0.26825929971944584 l -1.843559406152414 2.089294418412529" fill="#ff1b02" stroke="none" /><path d="M 113.89432698308785 84.25364557470405 l 1.6512487842596861 -1.871349985712918 a23.49571098417802,23.49571098417802 0 0,0 0.3009565758744807,0.2702017853499597 l -1.6832163477301567 1.8426491915936634" fill="#ff1702" stroke="none" /><path d="M 114.16331599549186 84.49514656593476 l 0.8310002194376056 -0.9097118648032169 a22.232127039581997,22.232127039581997 0 0,0 0.28032818888346306,0.2605345002974814 l -0.8465362921159154 0.895272778431095" fill="#ff0400" stroke="none" /><path d="M 114.42810811169701 84.74124197986012 l 2.691866974811152 -2.8468421828465367 a24.917991605926865,24.917991605926865 0 0,0 0.3091216356604285,0.2973747685885839 l -2.7404718540840007 2.8000843274956506" fill="#ff2b04" stroke="none" /><path d="M 114.68862486808459 84.99185889309783 l 1.6263675246397091 -1.6617452975132647 a23.325181446470392,23.325181446470392 0 0,0 0.2845274495803408,0.2833055982893145 l -1.65473077438737 1.6335038485738316" fill="#ff1402" stroke="none" /><path d="M 114.94478906791727 85.2469230424477 l 1.1906784225586526 -1.1754043713748334 a22.67310804857123,22.67310804857123 0 0,0 0.2717919785117163,0.2801055250457264 l -1.210734664773478 1.1547346507789926" fill="#ff0b01" stroke="none" /><path d="M 115.19652480421416 85.50635884689758 l 1.8332804118136443 -1.7484858389774995 a23.533400836315575,23.533400836315575 0 0,0 0.27705836723356414,0.2955465488287609 l -1.8631061010176715 1.716669873270684" fill="#ff1702" stroke="none" /><path d="M 115.4437574822437 85.77008943001954 l 0.9276496451920533 -0.8547383307808365 a22.261392674122913,22.261392674122913 0 0,0 0.25723183338664385,0.2840418151680626 l -0.9422251191947327 0.8386437283432248" fill="#ff0500" stroke="none" /><path d="M 115.9244219780498 86.31012108654704 l 23.654592339196345 -20.335338093718853 a52.19400125215455,52.19400125215455 0 0,0 0.57982412056037,0.6863288728014135 l -24.001127073243833 19.925150271288334" fill="#80ff26" stroke="none" /><path d="M 116.15771136456269 86.58626213691792 l 5.8947665191620775 -4.893691381660159 a28.66136330259629,28.66136330259629 0 0,0 0.31186498732329193,0.3823095991271745 l -5.978129998561778 4.791497612924884" fill="#ff5f08" stroke="none" /><path d="M 116.38621287248628 86.86637796730983 l 2.0168124003308914 -1.616484051739864 a23.584676565386427,23.584676565386427 0 0,0 0.2511722225885637,0.31896321574891795 l -2.044338703513419 1.5815284420379077" fill="#ff1802" stroke="none" /><path d="M 116.60985879189232 87.15038557335679 l 2.900450550038341 -2.2438283009203026 a24.66706678930567,24.66706678930567 0 0,0 0.2569181424247561,0.3380741598248346 l -2.93864463268721 2.1935693652144344" fill="#ff2703" stroke="none" /><path d="M 116.82858285166822 87.43820079747576 l 3.0553600256303293 -2.280692288333884 a24.812713233418613,24.812713233418613 0 0,0 0.2525430715694983,0.3444684658071835 l -3.094165709713454 2.227761378855207" fill="#ff2904" stroke="none" /><path d="M 117.04232023915458 87.72973835380427 l 3.28938370514098 -2.368315942337604 a25.05326603646707,25.05326603646707 0 0,0 0.24896668830984148,0.35214572448107667 l -3.329663013254705 2.311343717524734" fill="#ff2d04" stroke="none" /><path d="M 117.2510076193507 88.02491185347247 l 1.6141093280453698 -1.1204621728758557 a22.964887885791136,22.964887885791136 0 0,0 0.22262330105750297,0.3266722240293821 l -1.633157094771606 1.0925119255760671" fill="#ff0f01" stroke="none" /><path d="M 117.45458315368197 88.32363383020206 l 24.845188001273932 -16.620363265401096 a50.89180225233233,50.89180225233233 0 0,0 0.48081451426485095,0.7323134920131027 l -25.127599150896707 16.19023170941032" fill="#8eff24" stroke="none" /><path d="M 117.65298651832404 88.62581576622439 l 5.0354340034900655 -3.2444342487467015 a26.990154355101758,26.990154355101758 0 0,0 0.24827395211750927,0.39270976913133354 l -5.09053555185353 3.1572768319011617" fill="#ff4806" stroke="none" /><line stroke="#e1ed5e" stroke-width="0.3" x1="172.23445277983987" x2="176.4835382374775" y1="55.19839476539836" y2="52.563006222186495" /><path d="M 173.08426987136738 54.67131705675599 a86.0,86.0 0 0,1 12.851231095245387,41.99856678651699" fill="none" id="id15" stroke="none" /><text fill="#e1ed5e" style="font-size:6.75px; font-family:Arial;" text-anchor="middle"><textPath startOffset="22.20632615414155" xlink:href="#id15">March</textPath></text><path d="M 117.84615892207809 88.93136811851018 l 3.673996601201586 -2.278704122837082 a25.32327925365405,25.32327925365405 0 0,0 0.22656400511180086,0.372411653409757 l -3.712676404599611 2.2151246962202435" fill="#ff3104" stroke="none" /><path d="M 118.3937258080291 89.86733742301442 l 3.6773660977819707 -2.0257728221981957 a25.198425531585983,25.198425531585983 0 0,0 0.20601740839142682,0.38171896912754283 l -3.711691605391862 1.9621728697381942" fill="#ff2f04" stroke="none" /><path d="M 118.56541770881063 90.18545643968196 l 1.7887960842417894 -0.945640834193873 a23.023370459973567,23.023370459973567 0 0,0 0.18220318987179238,0.35195856872175746 l -1.804808707273698 0.9147095432117707" fill="#ff1001" stroke="none" /><path d="M 118.73160827565052 90.50648371742162 l 3.567007736509382 -1.8078237345297512 a24.99897122363326,24.99897122363326 0 0,0 0.1912302101686938,0.38550843467449075 l -3.5975979596314844 1.7461557113563106" fill="#ff2c04" stroke="none" /><path d="M 118.89224826269711 90.83032412892265 l 13.053432739004565 -6.335706876027103 a35.50976525966748,35.50976525966748 0 0,0 0.2621665781959098,0.5521896744937368 l -13.160557511042231 6.1100747858928255" fill="#ffba11" stroke="none" /><path d="M 119.04729006885535 91.15688171328212 l 1.7425627021262333 -0.8090225980294037 a22.921208561027075,22.921208561027075 0 0,0 0.16306549768654002,0.35929320900147643 l -1.7562305167761205 0.7789073801858645" fill="#ff0e01" stroke="none" /><path d="M 119.196687751892 91.48605970444005 l 3.518292285078009 -1.5604009839942856 a24.84879615387588,24.84879615387588 0 0,0 0.17004775507321085,0.3924936638206555 l -3.544630749993901 1.4996081755870272" fill="#ff2a04" stroke="none" /><path d="M 119.34039704204932 91.81776055985345 l 2.4181288988938534 -1.0230249981357629 a23.62562897578395,23.62562897578395 0 0,0 0.15522973487291644,0.3759011157068905 l -2.435380320652967 0.9812493119755693" fill="#ff1802" stroke="none" /><path d="M 119.47837535516314 92.15188598940014 l 3.068434671066023 -1.2363158987086846 a24.30813668580969,24.30813668580969 0 0,0 0.15303297429625268,0.3894522274795219 l -3.089261195243976 1.1833146663333782" fill="#ff2203" stroke="none" /><path d="M 119.61058180528143 92.48833698450437 l 5.337997426803162 -2.0446735464487533 a26.71619685106317,26.71619685106317 0 0,0 0.16080022355531967,0.430864654286899 l -5.372402238860107 1.9524857551325212" fill="#ff4406" stroke="none" /><path d="M 119.7369772167798 92.82701384747503 l 1.5273552655934026 -0.5550849073673427 a22.625094877760343,22.625094877760343 0 0,0 0.12987549923332228,0.3671755255554176 l -1.5366838456365346 0.5287117553853106" fill="#ff0a01" stroke="none" /><path d="M 119.85752413597 93.16781622104841 l 1.8124977141938365 -0.6236083309031847 a22.916777325181446,22.916777325181446 0 0,0 0.12512855743500195,0.3741184600672489 l -1.8229635654006087 0.5923167679136218" fill="#ff0e01" stroke="none" /><path d="M 119.97218684219823 93.5106431181261 l 3.177207413162328 -1.032337267553642 a24.340713573509973,24.340713573509973 0 0,0 0.12604376772799997,0.3995931882633221 l -3.194506664658534 0.9774939128639006" fill="#ff2303" stroke="none" /><path d="M 120.08093135843002 93.85539295169968 l 1.8079776222631239 -0.5532269316912696 a22.890725554001097,22.890725554001097 0 0,0 0.1120491237040845,0.37777394252700186 l -1.8172326430789107 0.5220236024177378" fill="#ff0e01" stroke="none" /><path d="M 120.18372546131832 94.20196356495316 l 5.1513219350242965 -1.4797839142812077 a26.35965279763791,26.35965279763791 0 0,0 0.12152205305184419,0.4371794816770612 l -5.176030758642503 1.3908931291851945" fill="#ff3f05" stroke="none" /><path d="M 120.28053869075195 94.5502522615342 l 4.233288325752182 -1.1375611778035184 a25.383466149315566,25.383466149315566 0 0,0 0.10975770648589793,0.42294121607644164 l -4.252242364108382 1.0645235361782264" fill="#ff3204" stroke="none" /><path d="M 120.45610955862082 95.25157060432595 l 17.241352181677208 -4.002195201684516 a38.69976811952665,38.69976811952665 0 0,0 0.14504233203458802,0.6501963345677784 l -17.307688900713835 3.7048206975667735" fill="#ffe315" stroke="none" /><path d="M 120.53481517161879 95.60439243477599 l 4.152992053390281 -0.8889743168191605 a25.247071736089104,25.247071736089104 0 0,0 0.08730762502663678,0.42574298630180124 l -4.167678974331915 0.8173556743539475" fill="#ff3004" stroke="none" /><path d="M 120.6074358757038 95.95851677861258 l 3.750949304594607 -0.7356276040468921 a24.822403518399717,24.822403518399717 0 0,0 0.07862115242112948,0.4199973400075159 l -3.763056180925596 0.6709521865768134" fill="#ff2a04" stroke="none" /><path d="M 120.67395015179393 96.31383870115 l 2.8225438146749187 -0.503259014246017 a23.86705828702165,23.86705828702165 0 0,0 0.06863272480674153,0.4050742268851802 l -2.830788401001883 0.4545989990449995" fill="#ff1c02" stroke="none" /><path d="M 120.73433829027371 96.67025291283417 l 2.670829961344743 -0.4289111212328679 a23.705050356709464,23.705050356709464 0 0,0 0.06123139417029097,0.403438382775159 l -2.6778172489543337 0.3828736260656262" fill="#ff1a02" stroke="none" /><path d="M 120.87857604477298 97.74499172005257 l 3.8055790795321243 -0.4110247900018109 a24.82771126243459,24.82771126243459 0 0,0 0.04223415281075555,0.42529215512870505 l -3.8120903580251086 0.3454571041686709" fill="#ff2a04" stroke="none" /><path d="M 120.91429891909075 98.10471618934814 l 2.1822793936947806 -0.19776129341889967 a23.191221778214057,23.191221778214057 0 0,0 0.032606323517064044,0.3978797356970774 l -2.1853602010313393 0.1601676405140535" fill="#ff1202" stroke="none" /><path d="M 120.94382443527127 98.46500227214037 l 13.446285924139445 -0.9854942398650645 a34.48235157717369,34.48235157717369 0 0,0 0.03829085997893577,0.5923426559383553 l -13.461257375122797 0.7538925196736739" fill="#ffad10" stroke="none" /><path d="M 120.96714384426684 98.82574320788733 l 2.9836331421387925 -0.16709722165076543 a23.98830858653393,23.98830858653393 0 0,0 0.019540638309382373,0.4124719905475014 l -2.986067388681671 0.11571412448026427" fill="#ff1e03" stroke="none" /><path d="M 120.98425023603335 99.18683210126433 l 12.925319787593969 -0.5008735129414436 a33.935020907889346,33.935020907889346 0 0,0 0.017594994109484393,0.5838921953227253 l -12.932026476159098 0.2783111701937192" fill="#ffa60f" stroke="none" /><line stroke="#e1ed5e" stroke-width="0.3" x1="184.98032266829074" x2="189.97916517819016" y1="98.17113171792111" y2="98.06355123074" /><path d="M 185.9800911702706 98.14961562048488 a86.0,86.0 0 0,1 -9.607161424134198,41.387399972396054" fill="none" id="id16" stroke="none" /><text fill="#e1ed5e" style="font-size:6.75px; font-family:Arial;" text-anchor="middle"><textPath startOffset="21.466115282336823" xlink:href="#id16">April</textPath></text><path d="M 120.99513854157772 99.54816195383933 l 3.038831974227135 -0.06539894457596523 a24.03953562070538,24.03953562070538 0 0,0 0.005342492458821689,0.41378192856899826 l -3.0395074738036723 0.013080757946504255" fill="#ff1e03" stroke="none" /><path d="M 120.99980553446 99.90962569577887 l 3.76257133920756 -0.016192519797635967 a24.762606181933418,24.762606181933418 0 0,0 -0.0018344406455334885,0.4262594014163702 l -3.7622926012725237 -0.048576359822418924" fill="#ff2904" stroke="none" /><path d="M 120.99824983174949 100.27111621757518 l 52.476651381623505 0.677545573921387 a73.48102522086614,73.48102522086614 0 0,0 -0.027215752762346813,1.2646090886192596 l -52.45721356617615 -1.5807444783307614" fill="#40ffc6" stroke="none" /><path d="M 120.9904718944345 100.63252640178507 l 7.534501631943622 0.22704450049837402 a28.537921732610897,28.537921732610897 0 0,0 -0.01902238271980231,0.4908831739405967 l -7.529477116372617 -0.3567049214529769" fill="#ff5e08" stroke="none" /><path d="M 120.9764740272857 100.99374915477107 l 5.870792634267289 0.2781256378240906 a26.877376968085517,26.877376968085517 0 0,0 -0.02587094605221344,0.46194312088080614 l -5.865135337327546 -0.3791404750403201" fill="#ff4706" stroke="none" /><path d="M 120.95626037817324 101.35467743843564 l 3.886992126073591 0.2512671841992013 a24.89510500320768,24.89510500320768 0 0,0 -0.03132449269511484,0.4273978153995251 l -3.8820910747141384 -0.3181381360954966" fill="#ff2b04" stroke="none" /><path d="M 120.92983693683757 101.71520430193887 l 3.674276173077359 0.30110766355191715 a24.686593443966082,24.686593443966082 0 0,0 -0.03835286084062374,0.4232206234839348 l -3.66854871595966 -0.3643096755844225" fill="#ff2803" stroke="none" /><path d="M 120.89721153311464 102.0752229133903 l 3.700917693376329 0.3675241161097356 a24.719121636766967,24.719121636766967 0 0,0 -0.045692352897849765,0.4230544398110135 l -3.6940430389774273 -0.4311748778055405" fill="#ff2803" stroke="none" /><path d="M 120.8583938346157 102.4346265915055 l 6.285909310747648 0.7337018411427578 a27.32858390594928,27.32858390594928 0 0,0 -0.0585592871518378,0.4667751355967259 l -6.272348514348963 -0.8417947310268786" fill="#ff4d07" stroke="none" /><path d="M 120.81339534386255 102.79330883721812 l 21.548686042817213 2.891990189942238 a42.74188302403054,42.74188302403054 0 0,0 -0.1041394764886638,0.7283512560110954 l -21.495712515311947 -3.262486917933743" fill="#eaff1a" stroke="none" /><path d="M 120.76222939487914 103.15116336523771 l 3.577788349120271 0.5430146907587284 a24.618761449098372,24.618761449098372 0 0,0 -0.06719543886001254,0.4184260619243534 l -3.56791115589897 -0.6045199823762868" fill="#ff2703" stroke="none" /><path d="M 120.70491114924044 103.5080841355445 l 3.687169600509789 0.6247262346298385 a24.739719579214235,24.739719579214235 0 0,0 -0.0747534868015225,0.41925725287431526 l -3.6758696713690777 -0.688102238237372" fill="#ff2803" stroke="none" /><path d="M 120.64145759157962 103.86396538481128 l 3.238827965496982 0.6062904758791975 a24.295086452769812,24.295086452769812 0 0,0 -0.08048622823243955,0.4103975437532203 l -3.2279118042888784 -0.6619517467003627" fill="#ff2203" stroke="none" /><path d="M 120.5718875245553 104.21870165774334 l 3.819323557991864 0.7832332646348534 a24.898805815562273,24.898805815562273 0 0,0 -0.08971390841180696,0.4191135128019803 l -3.805275610855614 -0.8488605968530027" fill="#ff2b04" stroke="none" /><path d="M 120.49622156327973 104.57218783832717 l 3.5637447406439353 0.7949811779585035 a24.65133833679866,24.65133833679866 0 0,0 -0.09595173546211379,0.41335756508055743 l -3.5495324392512684 -0.856207400387626" fill="#ff2703" stroke="none" /><path d="M 120.41448212921028 104.9243191809786 l 4.2623833008041965 1.0281591133188812 a25.384634826901227,25.384634826901227 0 0,0 -0.10611827278826114,0.42388974956464587 l -4.2440537137208745 -1.1013767022809229" fill="#ff3204" stroke="none" /><path d="M 120.32669344350535 105.2749913415812 l 6.8120825725812875 1.7678072770848923 a28.037727725948198,28.037727725948198 0 0,0 -0.1252511034750804,0.4661059505849444 l -6.780643392764429 -1.884804160845385" fill="#ff5708" stroke="none" /><path d="M 120.23288151984713 105.62410040840565 l 24.871632856187478 6.913526398451252 a46.81462702025863,46.81462702025863 0 0,0 -0.22249735609775118,0.774542485487146 l -24.748942863203627 -7.34062635944298" fill="#bbff1f" stroke="none" /><path d="M 120.13307415673323 105.97154293290107 l 3.5868763851614895 1.0638805659908377 a24.741326510894517,24.741326510894517 0 0,0 -0.12461761702556648,0.407257582766617 l -3.5680319956297906 -1.125465121309512" fill="#ff2803" stroke="none" /><path d="M 120.02730092923936 106.31721596034902 l 3.8094704372332817 1.2016221023289857 a24.994491292888227,24.994491292888227 0 0,0 -0.13295611234869326,0.4091968381423996 l -3.788222073868342 -1.2670178404491805" fill="#ff2c04" stroke="none" /><path d="M 119.9155931802556 106.66101706037122 l 2.302414793637208 0.7700711739619749 a23.427781599511505,23.427781599511505 0 0,0 -0.13120580603628645,0.3813454884178688 l -2.288818156657691 -0.809589365469144" fill="#ff1602" stroke="none" /><path d="M 119.79798401119884 107.00284435728193 l 4.513365590662179 1.5964452108376646 a25.78739033985948,25.78739033985948 0 0,0 -0.15162462280765843,0.4172058417823844 l -4.485216706849294 -1.6738988496261802" fill="#ff3705" stroke="none" /><path d="M 119.67450827220406 107.3425965602758 l 5.018393341437935 1.8728822686263342 a26.356487629176748,26.356487629176748 0 0,0 -0.16228783906073935,0.4236823373649455 l -4.985411222783689 -1.9589881728244236" fill="#ff3f05" stroke="none" /><path d="M 119.41010516605496 108.01547362559984 l 4.663754215911517 1.9259142902169353 a26.045765476089258,26.045765476089258 0 0,0 -0.17469145292392124,0.41291899169118473 l -4.629911781795285 -2.0059078075742836" fill="#ff3b05" stroke="none" /><path d="M 119.26925614724726 108.34839909993367 l 4.533354752645899 1.9640745053916167 a25.94053579848041,25.94053579848041 0 0,0 -0.1810388946721368,0.408194914613278 l -4.4988747732424885 -2.0418177564975823" fill="#ff3905" stroke="none" /><path d="M 119.12269723197855 108.67885076344098 l 22.57157294150605 10.244125641850431 a45.78745681226184,45.78745681226184 0 0,0 -0.33190538843696343,0.7148946790037076 l -22.391892936229258 -10.63114038813297" fill="#c7ff1e" stroke="none" /><path d="M 118.97047184881838 109.00673069616215 l 3.789680824831815 1.7992506926387208 a25.195114278426615,25.195114278426615 0 0,0 -0.1893793684795121,0.39017759138387215 l -3.7581481997375885 -1.8642172399878685" fill="#ff2f04" stroke="none" /><path d="M 118.81262510543309 109.33194174019688 l 3.5341014776583046 1.753079589298059 a24.945017275095264,24.945017275095264 0 0,0 -0.19412132882383648,0.3830197980646667 l -3.503401479048199 -1.8136535990654201" fill="#ff2b04" stroke="none" /><line stroke="#e1ed5e" stroke-width="0.3" x1="174.80103733775053" x2="179.2010983576182" y1="140.37084112569926" y2="142.7455964860345" /><path d="M 175.68104954172406 140.8457921977663 a86.0,86.0 0 0,1 -30.038265399797805,32.042727171017184" fill="none" id="id17" stroke="none" /><text fill="#e1ed5e" style="font-size:6.75px; font-family:Arial;" text-anchor="middle"><textPath startOffset="22.206326154141568" xlink:href="#id17">May</textPath></text><path d="M 118.48025628344425 109.97397251340804 l 10.390821453270313 5.6080265325916425 a32.80758790202277,32.80758790202277 0 0,0 -0.2724960609098145,0.49465950238266065 l -10.292748982908991 -5.786056553372109" fill="#ff970d" stroke="none" /><path d="M 118.30583269289576 110.29060199501023 l 5.1736471075420205 2.908359545261909 a26.935080423877505,26.935080423877505 0 0,0 -0.23067716417663928,0.4022050795780104 l -5.122817947213 -2.996984470698233" fill="#ff4706" stroke="none" /><path d="M 118.12598468904814 110.60418214915192 l 3.2667458079571063 1.9111330047346946 a24.784713666262164,24.784713666262164 0 0,0 -0.2186001410159647,0.3663864101993755 l -3.233364791242914 -1.9670815088201743" fill="#ff2904" stroke="none" /><path d="M 117.94076556474637 110.91462005526583 l 3.3674868411762313 2.0486773142373127 a24.941706021935893,24.941706021935893 0 0,0 -0.22629890210406167,0.364865885330836 l -3.3317232994042065 -2.1063395309334223" fill="#ff2b04" stroke="none" /><path d="M 117.75023020441432 111.22182372390056 l 3.2412551188404986 2.0491448938376475 a24.83467463304915,24.83467463304915 0 0,0 -0.23154802441735053,0.3593676759029644 l -3.205502231046098 -2.1046341696620647" fill="#ff2a04" stroke="none" /><path d="M 117.55443506779139 111.5257021239791 l 3.2307802267727697 2.12123092415241 a24.864914165578117,24.864914165578117 0 0,0 -0.23798907292905588,0.35576137324749263 l -3.193788048432993 -2.1765292116057093" fill="#ff2a04" stroke="none" /><path d="M 117.35343817320211 111.8261652097733 l 4.026941400364516 2.7443134792924444 a25.87314205770732,25.87314205770732 0 0,0 -0.2539745729829032,0.365869314700605 l -3.9791059202194763 -2.813224056180069" fill="#ff3805" stroke="none" /><path d="M 116.93607887273984 112.41649034213515 l 3.1205102001775624 2.2877659613054684 a24.869296706524345,24.869296706524345 0 0,0 -0.2560812008572735,0.3430626167400721 l -3.0806677326251966 -2.3411414575548557" fill="#ff2a04" stroke="none" /><path d="M 116.71984013943494 112.70617746262583 l 2.978198505122949 2.2632703667882104 a24.74059608740348,24.74059608740348 0 0,0 -0.2605929139283323,0.3368514695306769 l -2.9387987739765484 -2.31419983043214" fill="#ff2803" stroke="none" /><path d="M 116.498646956653 112.99209946851258 l 3.0309219686826103 2.3867435797543033 a24.85785340516475,24.85785340516475 0 0,0 -0.2676150190320955,0.33389088393281374 l -2.989389037595661 -2.4385622972653676" fill="#ff2a04" stroke="none" /><path d="M 116.27256486870786 113.27417163493432 l 2.9413550553317394 2.3993790873642156 a24.79586479822534,24.79586479822534 0 0,0 -0.2726411603813861,0.32841384113120514 l -2.8996178950568097 -2.4496541856091913" fill="#ff2904" stroke="none" /><path d="M 116.0416608686014 113.55231037782055 l 48.12498260580419 40.656931133461654 a84.0,84.0 0 0,0 -0.9426299617168756,1.096491603353888 l -47.418010134516535 -41.47929983597707" fill="#4dd2ff" stroke="none" /><path d="M 115.80600337817218 113.82643327865902 l 1.4973780533214358 1.3098439404212836 a22.98943011509001,22.98943011509001 0 0,0 -0.2631098133233321,0.29560666447673845 l -1.4746093903497701 -1.3354247746388885" fill="#ff0f01" stroke="none" /><path d="M 115.32070863581623 114.36230785411682 l 2.211512324342496 2.073169171243637 a24.031306182706356,24.031306182706356 0 0,0 -0.28550730735197244,0.29935327031537046 l -2.1754984656115592 -2.1109295581415144" fill="#ff1e03" stroke="none" /><path d="M 115.07121518719521 114.62390073753431 l 2.7013490609764057 2.6211728805195538 a24.764018334016093,24.764018334016093 0 0,0 -0.2994787912961897,0.3033704344601307 l -2.6558296446246805 -2.6672838089603492" fill="#ff2904" stroke="none" /><path d="M 114.81725581225074 114.88116024355365 l 2.7674254774501224 2.7793609365898253 a24.922179367275483,24.922179367275483 0 0,0 -0.3066022012587914,0.30007478514099073 l -2.7191733238155367 -2.826585824653388" fill="#ff2b04" stroke="none" /><path d="M 114.55890576462653 115.13401014063108 l 2.7318330461658817 2.8397456300347237 a24.94043995455143,24.94043995455143 0 0,0 -0.3119504690756388,0.29496863947755714 l -2.682546742699435 -2.8863489062582026" fill="#ff2b04" stroke="none" /><path d="M 114.29624159901734 115.38237550388516 l 2.4854356969623455 2.6742626666342297 a24.650900082704034,24.650900082704034 0 0,0 -0.3133017303867156,0.2861937023959354 l -2.4390344171087657 -2.7166491356167484" fill="#ff2703" stroke="none" /><path d="M 114.0293411484842 115.62618273729858 l 2.4785599498435067 2.7606735264106717 a24.7100643854781,24.7100643854781 0 0,0 -0.31894532913592466,0.28143216982491 l -2.4306722678009947 -2.8029288380078703" fill="#ff2803" stroke="none" /><path d="M 113.48314897796784 116.09983520530334 l 6.355662768466247 7.589111665234368 a30.898942625041546,30.898942625041546 0 0,0 -0.4107056134777529,0.3379827591963825 l -6.224087026443803 -7.697389543287929" fill="#ff7e0b" stroke="none" /><path d="M 113.20401910651253 116.32954008644616 l 2.3184521332287376 2.8672525193024163 a24.68732386745712,24.68732386745712 0 0,0 -0.3327410497878021,0.26434961389347233 l -2.2687535907235845 -2.9067360472010146" fill="#ff2803" stroke="none" /><path d="M 112.63410532772338 116.77436683061366 l 1.41874781331532 1.8836787919173223 a23.3581965882653,23.3581965882653 0 0,0 -0.32324966630798624,0.23913237532655757 l -1.3861131765887695 -1.907821115983649" fill="#ff1502" stroke="none" /><path d="M 112.34349029814194 116.9893568818739 l 2.151612410665474 2.9614404219013557 a24.660541672785733,24.660541672785733 0 0,0 -0.34556778546402833,0.24655343953481523 l -2.1003172973525612 -2.9980381232803905" fill="#ff2703" stroke="none" /><path d="M 112.04921762599082 117.19931262002967 l 3.7441823620305095 5.344526503700557 a27.52555477403248,27.52555477403248 0 0,0 -0.39039509458958577,0.2685173058712456 l -3.6516303828180408 -5.408184598936897" fill="#ff5007" stroke="none" /><path d="M 111.7513745106137 117.40417183066458 l 2.1648626511931646 3.2062327293819037 a24.86866367283211,24.86866367283211 0 0,0 -0.35683607491193553,0.23649149277519113 l -2.109351877541265 -3.2430222432484133" fill="#ff2a04" stroke="none" /><path d="M 111.1453310114006 117.79835938074945 l 2.1376479032834026 3.4136828752080595 a25.027749909180148,25.027749909180148 0 0,0 -0.3670984548057027,0.22550185391199504 l -2.0785702485453914 -3.4499731959484325" fill="#ff2c04" stroke="none" /><line stroke="#e1ed5e" stroke-width="0.3" x1="143.8653032363475" x2="146.44561519142675" y1="172.8068346515853" y2="177.08958963109032" /><path d="M 144.38136562736335 173.6633856474863 a86.0,86.0 0 0,1 -40.68145358897372,12.25698825130547" fill="none" id="id18" stroke="none" /><text fill="#e1ed5e" style="font-size:6.75px; font-family:Arial;" text-anchor="middle"><textPath startOffset="21.466115282336833" xlink:href="#id18">June</textPath></text><path d="M 110.8373102113329 117.98757091392108 l 1.944252503321184 3.227035038776197 a24.767475671873672,24.767475671873672 0 0,0 -0.3670682944099998,0.21687041843923602 l -1.888416337882802 -3.2600240295091822" fill="#ff2904" stroke="none" /><path d="M 110.5260780823613 118.17145234162733 l 0.9120995505996257 1.5745820413696525 a22.81967969577282,22.81967969577282 0 0,0 -0.34159021194426137,0.19396383729885924 l -0.8848605717341664 -1.5900490444631403" fill="#ff0d01" stroke="none" /><path d="M 110.21172684928248 118.3499491758327 l 0.4575493277213551 0.8221926646728919 a21.94093154115492,21.94093154115492 0 0,0 -0.3315976741673428,0.18081349106170308 l -0.4433288416853624 -0.8299468074943654" fill="#ff0000" stroke="none" /><path d="M 109.57404056367764 118.69057910512821 l 1.780422111640753 3.475765545049906 a24.905233542283405,24.905233542283405 0 0,0 -0.3832394713065297,0.1921642268340119 l -1.720328732651463 -3.50589761279322" fill="#ff2b04" stroke="none" /><line stroke="#e1ed5e" stroke-width="0.3" x1="102.19456741930631" x2="102.32365962044197" y1="184.97166512339345" y2="189.96999836594603" /><path d="M 102.22038585953345 185.97133177190398 a86.0,86.0 0 0,1 -42.740103519485714,-10.115201625700543" fill="none" id="id19" stroke="none" /><text fill="#e1ed5e" style="font-size:6.75px; font-family:Arial;" text-anchor="middle"><textPath startOffset="22.20632615414155" xlink:href="#id19">July</textPath></text><line stroke="#e1ed5e" stroke-width="0.3" x1="58.666819895761336" x2="56.23545636021788" y1="174.27360380694188" y2="178.64263932499728" /><path d="M 58.180547188652646 175.14741091055294 a86.0,86.0 0 0,1 -31.652253787137756,-30.449443065178592" fill="none" id="id20" stroke="none" /><text fill="#e1ed5e" style="font-size:6.75px; font-family:Arial;" text-anchor="middle"><textPath startOffset="22.20632615414155" xlink:href="#id20">August</textPath></text><line stroke="#e1ed5e" stroke-width="0.3" x1="26.63291911575756" x2="22.317208475507996" y1="142.92168965132927" y2="145.44649492493687" /><path d="M 25.769776987707644 143.4266507060508 a86.0,86.0 0 0,1 -11.730757126820373,-40.83630448921669" fill="none" id="id21" stroke="none" /><text fill="#e1ed5e" style="font-size:6.75px; font-family:Arial;" text-anchor="middle"><textPath startOffset="21.46611528233685" xlink:href="#id21">September</textPath></text><line stroke="#e1ed5e" stroke-width="0.3" x1="15.007084014347285" x2="10.007500721073583" y1="101.09737516637583" y2="101.16192664675087" /><path d="M 14.007167355692545 101.11028546245083 a86.0,86.0 0 0,1 10.666146001902534,-42.60595125391555" fill="none" id="id22" stroke="none" /><text fill="#e1ed5e" style="font-size:6.75px; font-family:Arial;" text-anchor="middle"><textPath startOffset="22.20632615414155" xlink:href="#id22">October</textPath></text><line stroke="#e1ed5e" stroke-width="0.3" x1="26.266209847984243" x2="21.928928074336255" y1="57.711370442889674" y2="55.22380399835377" /><path d="M 25.398753493254645 57.213857153982495 a86.0,86.0 0 0,1 29.58750427330803,-30.492523968695096" fill="none" id="id23" stroke="none" /><text fill="#e1ed5e" style="font-size:6.75px; font-family:Arial;" text-anchor="middle"><textPath startOffset="21.46611528233685" xlink:href="#id23">November</textPath></text><line stroke="#e1ed5e" stroke-width="0.3" x1="56.76296977257108" x2="54.21961505331056" y1="26.818313649435495" y2="22.513508569990535" /><path d="M 56.25429882871898 25.957352633546506 a86.0,86.0 0 0,1 42.26535254187918,-11.944610805530505" fill="none" id="id24" stroke="none" /><text fill="#e1ed5e" style="font-size:6.75px; font-family:Arial;" text-anchor="middle"><textPath startOffset="22.20632615414155" xlink:href="#id24">December</textPath></text></svg>