<?xml version="1.0" encoding="utf-8" ?>
<svg baseProfile="full" height="200mm" version="1.1" viewBox="0,0,200,200" width="200mm" xmlns="http://www.w3.org/2000/svg" xmlns:ev="http://www.w3.org/2001/xml-events" xmlns:xlink="http://www.w3.org/1999/xlink"><defs /><rect fill="#1a1a1a" height="200" width="200" x="0" y="0" /><text alignment-baseline="middle" fill="#e1ed5e" style="dominant-baseline: central; font-size:9.0px; font-family:Arial;" text-anchor="middle" x="100.0" y="100.0">2021</text><line stroke="#e1ed5e" stroke-width="0.3" x1="100.0" x2="100.0" y1="15.0" y2="10.0" /><path d="M 100.0 14.0 a86.0,86.0 0 0,1 42.46469731375804,11.215312516191453" fill="none" id="id13" stroke="none" /><text fill="#e1ed5e" style="font-size:6.75px; font-family:Arial;" text-anchor="middle"><textPath startOffset="22.20632615414155" xlink:href="#id13">January</textPath></text><path d="M 100.72285384407766 79.0124445844662 l 0.7480115829509146 -21.717992755056645 a42.73087045281255,42.73087045281255 0 0,0 0.7348878859055757,0.03164581824482601 l -1.1217403012458218 21.701899210287625" fill="#ffe715" stroke="none" /><path d="M 101.44485096284872 79.0497635885617 l 0.8215788540648438 -11.912835071487752 a32.94113190840446,32.94113190840446 0 0,0 0.5653479577761044,0.04388188230251524 l -1.0265170012032894 11.896927926996772" fill="#ff5c08" stroke="none" /><path d="M 101.80526077348638 79.07773832637324 l 1.3628637645935864 -15.795054502438218 a36.8537422830017,36.8537422830017 0 0,0 0.6315588485878157,0.05997412262378743 l -1.6345477402716464 15.769254835299252" fill="#ff950d" stroke="none" /><path d="M 102.16513564639614 79.11191278185805 l 1.7320978663770745 -16.710367021790926 a37.79989669675578,37.79989669675578 0 0,0 0.646618166541306,0.07265508519401584 l -2.0194827364281056 16.67807598312631" fill="#ffa30f" stroke="none" /><path d="M 102.52436894288641 79.15227682838746 l 2.136272907408979 -17.642597892903307 a38.77146370858647,38.77146370858647 0 0,0 0.661857080653372,0.08592804449421111 l -2.439644716570197 17.60321152524496" fill="#ffb110" stroke="none" /><path d="M 102.88285421437855 79.19881850522331 l 2.2656821878652673 -16.347988102973645 a37.50424281181593,37.50424281181593 0 0,0 0.6386990759543327,0.09412764112138242 l -2.5467502442482557 16.306565977691292" fill="#ff9f0e" stroke="none" /><path d="M 103.2404852339499 79.25152402106235 l 2.632064345003843 -16.852822924535733 a38.05712177484811,38.05712177484811 0 0,0 0.6463744683573608,0.1066573256291236 l -2.921768019500079 16.805019335966985" fill="#ffa70f" stroke="none" /><path d="M 103.59715602781102 79.31037775812273 l 3.1114421984218223 -17.8959609244299 a39.16442924957572,39.16442924957572 0 0,0 0.6631934343033038,0.12119436109317784 l -3.419030753828027 17.839751081985984" fill="#ffb610" stroke="none" /><path d="M 103.95276090670814 79.375362276772 l 2.988647745199364 -15.594107127115093 a36.87791524214772,36.87791524214772 0 0,0 0.6224177100305449,0.12485113723032014 l -3.2566318646970345 15.540352033807563" fill="#ff960d" stroke="none" /><path d="M 104.307194497241 79.44645832069477 l 4.152628327295492 -19.81596592826342 a41.24640283346041,41.24640283346041 0 0,0 0.6936412982443373,0.1516031214687325 l -4.493112349693357 19.741549308698815" fill="#ffd313" stroke="none" /><path d="M 104.66035177308747 79.52364482259891 l 2.468288827768942 -10.84500938527311 a32.122350394765974,32.122350394765974 0 0,0 0.5380896184747,0.12734842771464996 l -2.654602133206166 10.800915045417591" fill="#ff5007" stroke="none" /><path d="M 105.01212808612495 79.60689891045804 l 4.2620532619318565 -17.34123340945712 a38.85730870452812,38.85730870452812 0 0,0 0.6481604689913432,0.16523053544074917 l -4.5599226196082245 17.265299877847507" fill="#ffb210" stroke="none" /><path d="M 105.36241919743992 79.69619591428918 l 4.260470211760433 -16.13147896641287 a37.68461027621319,37.68461027621319 0 0,0 0.6257477689093989,0.1710405030018515 l -4.537515869893543 16.055751922584726" fill="#ffa10e" stroke="none" /><path d="M 105.71112130821622 79.79150937346287 l 4.2982379094829035 -15.209079936623072 a36.804776545244366,36.804776545244366 0 0,0 0.6081722617001506,0.17754216037176004 l -4.5594003889064805 15.132839447332609" fill="#ff950d" stroke="none" /><path d="M 106.0581310904928 79.89281104454417 l 7.183482917923188 -23.8422784570714 a45.90093710800108,45.90093710800108 0 0,0 0.7545559474270169,0.23444420585571915 l -7.592824238060922 23.715094116333162" fill="#edff1a" stroke="none" /><path d="M 106.40334571778207 80.00007090966166 l 10.795174333014296 -33.71717391090806 a56.40315812775168,56.40315812775168 0 0,0 0.9221034792873505,0.3040030194522669 l -11.373960634544064 33.52635716719656" fill="#6dff28" stroke="none" /><path d="M 106.74666289553966 80.11325718540242 l 6.883398272619239 -20.28978967194634 a42.42560936616081,42.42560936616081 0 0,0 0.689553522154877,0.24057168414150634 l -7.2316337988373895 20.168297134632628" fill="#ffe315" stroke="none" /><path d="M 107.08798089147638 80.2323363322302 l 7.336863040200382 -20.461770873222928 a42.73737855719803,42.73737855719803 0 0,0 0.6903463884166513,0.25426040092668434 l -7.687991754389609 20.33244720448992" fill="#ffe715" stroke="none" /><path d="M 107.4271985657038 80.35727306442388 l 7.836729365925039 -20.725813863883037 a43.157926064392356,43.157926064392356 0 0,0 0.6926165546380899,0.2687244627557923 l -8.192329085562795 20.587846697236696" fill="#ffed16" stroke="none" /><path d="M 107.76421540070413 80.48803036053334 l 5.928089315781733 -14.89766741132528 a37.03379983766633,37.03379983766633 0 0,0 0.5902766750524704,0.2407886767185555 l -6.183649860422591 14.793417848423145" fill="#ff980e" stroke="none" /><path d="M 108.09893153111575 80.62456947434976 l 15.042415231523778 -35.98663232756333 a60.00399931131171,60.00399931131171 0 0,0 0.9495382651756009,0.4065427307682764 l -15.659637254489693 35.722370068832255" fill="#45ff2d" stroke="none" /><path d="M 108.43124777332544 80.76684994638697 l 5.435756521237693 -12.399910860007266 a34.539026489903335,34.539026489903335 0 0,0 0.5424565974818895,0.2433844630598413 l -5.648395237186363 12.304506066430893" fill="#ff740a" stroke="none" /><path d="M 108.76106565485865 80.91482961587045 l 6.26990360134858 -13.65840449528463 a36.02876257471038,36.02876257471038 0 0,0 0.5613998159218492,0.26358474112499247 l -6.504081628570027 13.548454771519635" fill="#ff890c" stroke="none" /><path d="M 109.41281617654863 81.2277094730956 l 8.001113691905807 -15.956885585151381 a38.85049069041001,38.85049069041001 0 0,0 0.5952256157938147,0.3048976790979372 l -8.274599795288378 15.816795380740944" fill="#ffb210" stroke="none" /><path d="M 109.73455568895987 81.39251694778311 l 8.55042457708934 -16.344031046829286 a39.44551737708143,39.44551737708143 0 0,0 0.5989237432350473,0.31992432159341416 l -8.830493366852698 16.194427998734117" fill="#ffba11" stroke="none" /><path d="M 110.05341064243156 81.56283822128135 l 7.935856780180851 -14.553735096763878 a37.576761689254,37.576761689254 0 0,0 0.5652187537293389,0.3145436245010179 l -8.185199622982225 14.41497607470268" fill="#ffa00e" stroke="none" /><line stroke="#e1ed5e" stroke-width="0.3" x1="143.23703022742887" x2="145.7803849466894" y1="26.81831364943548" y2="22.513508569990506" /><path d="M 143.74570117128098 25.957352633546492 a86.0,86.0 0 0,1 28.547481713284135,27.462654790039103" fill="none" id="id14" stroke="none" /><text fill="#e1ed5e" style="font-size:6.75px; font-family:Arial;" text-anchor="middle"><textPath startOffset="19.985693538727396" xlink:href="#id14">February</textPath></text><path d="M 110.68208982089419 81.91981866633111 l 9.751423550299426 -16.504963823274068 a40.17039624172959,40.17039624172959 0 0,0 0.5922989757860919,0.35685350563264673 l -10.034084592303156 16.334663708182806" fill="#ffc412" stroke="none" /><path d="M 110.99172775467656 82.1063720568725 l 9.458720079242608 -15.398017645055573 a39.07114642005067,39.07114642005067 0 0,0 0.570030997998216,0.3569533586517386 l -9.72237022961309 15.232919945080889" fill="#ffb510" stroke="none" /><path d="M 111.2981086023043 82.29822771554956 l 11.37252711532043 -17.8183705238133 a42.13832304400226,42.13832304400226 0 0,0 0.608061969546991,0.395500419337438 l -11.6775561106517 17.619971180316334" fill="#ffdf14" stroke="none" /><path d="M 111.60114157652 82.49532879139004 l 11.968262336840517 -18.058610505090222 a42.66454977002731,42.66454977002731 0 0,0 0.6086713726837446,0.4109776278865256 l -12.277338403930804 17.849920964905028" fill="#ffe615" stroke="none" /><path d="M 111.90073688211348 82.69761687909136 l 12.28647097619934 -17.863198736343456 a42.680665076124654,42.680665076124654 0 0,0 0.6017340890904807,0.4215531837001999 l -12.592136204873471 17.649060709879322" fill="#ffe715" stroke="none" /><path d="M 112.48926042617603 83.11751280151076 l 13.714993927234335 -18.539385159957423 a44.06100302530929,44.06100302530929 0 0,0 0.6058468615629324,0.4563112956065449 l -14.032086942555651 18.300557274845033" fill="#fff917" stroke="none" /><path d="M 112.77801427241765 83.33499621200491 l 11.25195661688106 -14.674729237659633 a39.492003836977645,39.492003836977645 0 0,0 0.5359016869074997,0.41827976696300434 l -11.502890858947989 14.478871081473402" fill="#ffbb11" stroke="none" /><path d="M 113.06298171725822 83.55741782278167 l 13.488893333078307 -16.978683880101478 a42.68469390264899,42.68469390264899 0 0,0 0.5713582090166485,0.461998603058057 l -13.779154940659447 16.743979179779295" fill="#ffe715" stroke="none" /><path d="M 113.34407831869373 83.78471172551755 l 11.901065436878321 -14.461786136410538 a39.72908478244828,39.72908478244828 0 0,0 0.5243150671889413,0.4390987902766224 l -12.14823804102638 14.254786188740097" fill="#ffbe11" stroke="none" /><path d="M 113.6212207817346 84.01681056812373 l 11.502371660746777 -13.496924256310974 a38.73334481147158,38.73334481147158 0 0,0 0.5037293651031461,0.4368291415858535 l -11.732994824496688 13.296930121305447" fill="#ffb010" stroke="none" /><path d="M 113.89432698308785 84.25364557470405 l 10.509069235859284 -11.90986285764224 a36.88349361733527,36.88349361733527 0 0,0 0.4724406915303152,0.4241619175541831 l -10.712520914985591 11.727201931318763" fill="#ff960d" stroke="none" /><path d="M 114.16331599549186 84.49514656593476 l 5.2887480822578725 -5.789693874739693 a28.841645965024476,28.841645965024476 0 0,0 0.3636685938056499,0.33799032390720823 l -5.387624559858369 5.697798964757845" fill="#ff1d03" stroke="none" /><path d="M 114.42810811169701 84.74124197986012 l 17.131892348188128 -18.11820356101711 a45.935337088324275,45.935337088324275 0 0,0 0.5698535724676341,0.5481986852194752 l -17.441229164268183 17.820621789035336" fill="#ecff1a" stroke="none" /><path d="M 114.68862486808459 84.99185889309783 l 10.350717034474346 -10.575872364236108 a35.79818973362521,35.79818973362521 0 0,0 0.4366768870748835,0.4348016577463223 l -10.53122972171655 10.396134855839668" fill="#ff860c" stroke="none" /><path d="M 114.94478906791727 85.2469230424477 l 7.577853864051495 -7.480644974069008 a31.64818850382468,31.64818850382468 0 0,0 0.3793800016891955,0.3909844401843514 l -7.7054981294438 7.349096338334543" fill="#ff4806" stroke="none" /><path d="M 115.19652480421416 85.50635884689758 l 11.667576055253157 -11.127916589487267 a37.12336375039969,37.12336375039969 0 0,0 0.43705279226075977,0.4662174461590949 l -11.85739616948438 10.925429726450117" fill="#ff990e" stroke="none" /><path d="M 115.4437574822437 85.77008943001954 l 5.903855579408822 -5.439824926651363 a29.027901714341937,29.027901714341937 0 0,0 0.33541928335989296,0.3703783502748286 l -5.996618503384751 5.3373937891069865" fill="#ff2003" stroke="none" /><path d="M 116.15771136456269 86.58626213691792 l 16.693586072582868 -13.858607974860604 a42.69647047248936,42.69647047248936 0 0,0 0.4645813279037573,0.5695217752954552 l -16.929665892563033 13.569202029957047" fill="#ffe715" stroke="none" /><path d="M 116.38621287248628 86.86637796730983 l 12.835631646093411 -10.287815488695601 a37.449698698871046,37.449698698871046 0 0,0 0.3988320141422878,0.5064761559355418 l -13.010817740829664 10.065346938807021" fill="#ff9e0e" stroke="none" /><path d="M 116.60985879189232 87.15038557335679 l 18.4593841558556 -14.280432598970219 a44.33837223602332,44.33837223602332 0 0,0 0.46180327520559383,0.6076789781991052 l -18.702463371285305 13.96056884489008" fill="#fffd17" stroke="none" /><path d="M 116.82858285166822 87.43820079747576 l 19.445277026636262 -14.515046667868903 a45.265312246353645,45.265312246353645 0 0,0 0.46070902777574196,0.628406596130893 l -19.69224866692563 14.178177628066518" fill="#f5ff19" stroke="none" /><path d="M 117.04232023915458 87.72973835380427 l 20.93467769978231 -15.072711300480222 a46.796266325601984,46.796266325601984 0 0,0 0.46503762964045964,0.6577627477492093 l -21.19102794922665 14.71012205239922" fill="#e1ff1b" stroke="none" /><path d="M 117.2510076193507 88.02491185347247 l 10.27270199643486 -7.130975455157032 a33.505167621811744,33.505167621811744 0 0,0 0.3248015429270943,0.4766061858401895 l -10.393928005030686 6.953091246046436" fill="#ff6409" stroke="none" /><path d="M 117.65298651832404 88.62581576622439 l 32.047093738816635 -20.648605150409615 a59.12323585114494,59.12323585114494 0 0,0 0.543856075575379,0.8602497042411958 l -32.39777741063797 20.093907798454214" fill="#4fff2b" stroke="none" /><line stroke="#e1ed5e" stroke-width="0.3" x1="172.23445277983987" x2="176.4835382374775" y1="55.19839476539836" y2="52.563006222186495" /><path d="M 173.08426987136738 54.67131705675599 a86.0,86.0 0 0,1 12.851231095245387,41.99856678651699" fill="none" id="id15" stroke="none" /><text fill="#e1ed5e" style="font-size:6.75px; font-family:Arial;" text-anchor="middle"><textPath startOffset="22.20632615414155" xlink:href="#id15">March</textPath></text><path d="M 117.84615892207809 88.93136811851018 l 23.382475749497377 -14.502393354172373 a48.514715793098354,48.514715793098354 0 0,0 0.4340546975312861,0.7134717957432447 l -23.62864624531489 14.097753785222046" fill="#cbff1d" stroke="none" /><path d="M 118.3937258080291 89.86733742301442 l 23.403920290859542 -12.892658603317315 a47.72010723860589,47.72010723860589 0 0,0 0.39015028177594957,0.7228892185721393 l -23.622378671853955 12.487888401412718" fill="#d5ff1c" stroke="none" /><path d="M 118.56541770881063 90.18545643968196 l 11.384463732737283 -6.018357193373866 a33.87736921071402,33.87736921071402 0 0,0 0.26809996153202786,0.5178837911760349 l -11.486373127429427 5.821500679937486" fill="#ff6a09" stroke="none" /><path d="M 118.73160827565052 90.50648371742162 l 22.701564794567933 -11.505561713960967 a46.45071697370686,46.45071697370686 0 0,0 0.35532583680767504,0.7163152047278116 l -22.896250644329015 11.113086920734206" fill="#e6ff1a" stroke="none" /><path d="M 119.04729006885535 91.15688171328212 l 11.090219874215302 -5.148875552315724 a33.22717859163244,33.22717859163244 0 0,0 0.2363839759730936,0.5208407571733135 l -11.177206167151741 4.957212786300348" fill="#ff6008" stroke="none" /><path d="M 119.196687751892 91.48605970444005 l 22.391524262318303 -9.93088511726043 a45.49495535824089,45.49495535824089 0 0,0 0.311335606679606,0.7186055052058486 l -22.559150578840587 9.54398046746798" fill="#f2ff19" stroke="none" /><path d="M 119.34039704204932 91.81776055985345 l 15.38973670227463 -6.510854474447721 a37.71033278402243,37.71033278402243 0 0,0 0.24777181449997818,0.5999991018957324 l -15.499530203660806 6.244980802098686" fill="#ffa20e" stroke="none" /><path d="M 119.47837535516314 92.15188598940014 l 19.528488203188072 -7.868305188638288 a42.05402759672381,42.05402759672381 0 0,0 0.26475303341618384,0.6737675920503748 l -19.661034786485956 7.530988591692129" fill="#ffde14" stroke="none" /><path d="M 119.85752413597 93.16781622104841 l 11.535308398025242 -3.9688405454047944 a33.198976805962076,33.198976805962076 0 0,0 0.1812706916466595,0.5419762954543831 l -11.60191638344367 3.769691147028097" fill="#ff6008" stroke="none" /><path d="M 119.97218684219823 93.5106431181261 l 20.220752317815023 -6.570120700705295 a42.26135720786088,42.26135720786088 0 0,0 0.218842421184184,0.693790279238271 l -20.330850222767413 6.221080255040604" fill="#ffe115" stroke="none" /><path d="M 120.08093135843002 93.85539295169968 l 11.506541104141293 -3.5209110727019417 a33.033175098998946,33.033175098998946 0 0,0 0.161695980945412,0.5451584643699677 l -11.565442982198409 3.3223232215854437" fill="#ff5d08" stroke="none" /><path d="M 120.18372546131832 94.20196356495316 l 32.784641168194334 -9.417812601911594 a55.11052463290454,55.11052463290454 0 0,0 0.2540679935949279,0.914017752013908 l -32.94189593235563 8.852083546478733" fill="#7cff26" stroke="none" /><path d="M 120.28053869075195 94.5502522615342 l 26.94198508108518 -7.239798927647677 a48.89776422264309,48.89776422264309 0 0,0 0.21143315975033666,0.8147382135320169 l -27.06261457270582 6.774964288566809" fill="#c7ff1e" stroke="none" /><path d="M 120.53481517161879 95.60439243477599 l 26.430954221485806 -5.657713564065842 a48.029707061514614,48.029707061514614 0 0,0 0.16609291160969697,0.8099280237058291 l -26.5244264290105 5.201909884196602" fill="#d2ff1c" stroke="none" /><path d="M 120.6074358757038 95.95851677861258 l 23.87222707925013 -4.681766609871595 a45.32698428314927,45.32698428314927 0 0,0 0.14356626414013615,0.766936723729181 l -23.949279067300125 4.270151808679851" fill="#f4ff19" stroke="none" /><path d="M 120.67395015179393 96.31383870115 l 17.963561065066145 -3.202899450825539 a39.24686523845833,39.24686523845833 0 0,0 0.1128592920436746,0.6661019302399854 l -18.01603221863004 2.8932117322697164" fill="#ffb711" stroke="none" /><path d="M 120.73433829027371 96.67025291283417 l 16.99800614452117 -2.729725957731496 a38.215795557960504,38.215795557960504 0 0,0 0.09871341364513998,0.6503980596694184 l -17.04247545160561 2.436728785669995" fill="#ffa90f" stroke="none" /><path d="M 120.87857604477298 97.74499172005257 l 24.21990823585743 -2.6158916917659596 a45.36076444400719,45.36076444400719 0 0,0 0.07716270891387138,0.7770179484029344 l -24.261348070453533 2.19859821265859" fill="#f4ff19" stroke="none" /><path d="M 120.91429891909075 98.10471618934814 l 13.888715897289496 -1.2586153852304387 a34.94562805912881,34.94562805912881 0 0,0 0.04913274793798695,0.5995439735303715 l -13.908323129046977 1.0193574944922985" fill="#ff7a0b" stroke="none" /><path d="M 120.96714384426684 98.82574320788733 l 18.988784466659638 -1.0634595393418635 a40.018540472735324,40.018540472735324 0 0,0 0.032598706250013695,0.688107166374414 l -19.004276781143147 0.7364412663444498" fill="#ffc212" stroke="none" /><line stroke="#e1ed5e" stroke-width="0.3" x1="184.98032266829074" x2="189.97916517819016" y1="98.17113171792111" y2="98.06355123074" /><path d="M 185.9800911702706 98.14961562048488 a86.0,86.0 0 0,1 -9.607161424134198,41.387399972396054" fill="none" id="id16" stroke="none" /><text fill="#e1ed5e" style="font-size:6.75px; font-family:Arial;" text-anchor="middle"><textPath startOffset="21.466115282336823" xlink:href="#id16">April</textPath></text><path d="M 120.99513854157772 99.54816195383933 l 19.34008728285826 -0.41621955640625996 a40.34456551147404,40.34456551147404 0 0,0 0.008966085718138474,0.6944332198429622 l -19.344386375694114 0.083250078502835" fill="#ffc712" stroke="none" /><path d="M 120.99980553446 99.90962569577887 l 23.94619338134425 -0.10305431457602622 a44.94641513146567,44.94641513146567 0 0,0 -0.003329679040340187,0.7737001456546346 l -23.944419405014408 -0.30915530928229307" fill="#f9ff18" stroke="none" /><path d="M 120.99824983174949 100.27111621757518 l 23.32558124803278 0.3011652595516542 a44.32752539538087,44.32752539538087 0 0,0 -0.016417938754952975,0.7628771008910934 l -23.31694124659282 -0.7026321762328624" fill="#fffd17" stroke="none" /><path d="M 120.9904718944345 100.63252640178507 l 16.870955615809127 0.508388992110883 a37.87861376884669,37.87861376884669 0 0,0 -0.025248562062709593,0.6515531973750464 l -16.859704920895215 -0.7987194364999355" fill="#ffa40f" stroke="none" /><path d="M 120.9764740272857 100.99374915477107 l 37.363580128568216 1.7700794768314125 a58.40548491034754,58.40548491034754 0 0,0 -0.05621847515340321,1.0038186392994795 l -37.327575302527286 -2.4129698324663154" fill="#57ff2a" stroke="none" /><path d="M 120.95626037817324 101.35467743843564 l 24.738046599356725 1.5991437877925117 a45.78967951398283,45.78967951398283 0 0,0 -0.05761528144840496,0.7861147398092535 l -24.70685475924398 -2.0247316640985353" fill="#eeff19" stroke="none" /><path d="M 120.92983693683757 101.71520430193887 l 23.384255033289705 1.9163443533638198 a44.46264603881251,44.46264603881251 0 0,0 -0.06907675131455976,0.7622561946833181 l -23.34780368569807 -2.3185819365957085" fill="#fffe18" stroke="none" /><path d="M 120.89721153311464 102.0752229133903 l 23.553810090068104 2.3390396522089323 a44.66966574021694,44.66966574021694 0 0,0 -0.0825701722263111,0.7644972460576615 l -23.510057616340738 -2.7441332201513853" fill="#fdff18" stroke="none" /><path d="M 120.8583938346157 102.4346265915055 l 40.00551387936141 4.669510446000766 a61.27710849300243,61.27710849300243 0 0,0 -0.13130368570963116,1.0466195659545265 l -39.91920868440493 -5.357447766242688" fill="#37ff2e" stroke="none" /><path d="M 120.76222939487914 103.15116336523771 l 22.770176021060742 3.455917143236934 a44.03094178124309,44.03094178124309 0 0,0 -0.1201798255581476,0.7483598884711871 l -22.707314441141307 -3.847356261401326" fill="#fff917" stroke="none" /><path d="M 120.70491114924044 103.5080841355445 l 23.46631288118429 3.975955238099446 a44.80075755712423,44.80075755712423 0 0,0 -0.13536987870947664,0.7592261698822657 l -23.394396560135622 -4.37930015871493" fill="#fbff18" stroke="none" /><path d="M 120.64145759157962 103.86396538481128 l 20.612924991617824 3.85862424172088 a41.97097178837592,41.97097178837592 0 0,0 -0.1390439676378011,0.7089821954069002 l -20.54345109100436 -4.212870164195725" fill="#ffdd14" stroke="none" /><path d="M 120.5718875245553 104.21870165774334 l 24.307382441513795 4.984744082380076 a45.813232653663576,45.813232653663576 0 0,0 -0.16507153751810416,0.7711592681400945 l -24.217976865271247 -5.40241716993634" fill="#eeff19" stroke="none" /><path d="M 120.49622156327973 104.57218783832717 l 22.680798057421367 5.059511516380318 a44.238271392380156,44.238271392380156 0 0,0 -0.17219101275351278,0.7417943762846378 l -22.590346478737303 -5.44917455001352" fill="#fffb17" stroke="none" /><path d="M 120.41448212921028 104.9243191809786 l 27.127154699468452 6.543529606407597 a48.90520205622647,48.90520205622647 0 0,0 -0.20444397203098139,0.8166520414173263 l -27.01049941314241 -7.00950948722232" fill="#c7ff1e" stroke="none" /><path d="M 120.32669344350535 105.2749913415812 l 14.103546532304607 3.6600190803421104 a35.57071598986644,35.57071598986644 0 0,0 -0.15890272823379403,0.5913361650238037 l -14.038455727729037 -3.9022461785414624" fill="#ff830c" stroke="none" /><path d="M 120.13307415673323 105.97154293290107 l 22.8280151552273 6.770872223046297 a44.8109845783014,44.8109845783014 0 0,0 -0.22570487933451683,0.7376166048621202 l -22.70808350338665 -7.162815800460474" fill="#fbff18" stroke="none" /><path d="M 120.02730092923936 106.31721596034902 l 24.244674066356602 7.647502901493821 a46.42220527830386,46.42220527830386 0 0,0 -0.2469390502143344,0.7600002495303556 l -24.109442765126023 -8.063702051001972" fill="#e6ff1a" stroke="none" /><path d="M 119.9155931802556 106.66101706037122 l 14.65329555827538 4.900976376696678 a36.45116954030056,36.45116954030056 0 0,0 -0.20414246479915074,0.5933335596759319 l -14.566762262532999 -5.15248263946191" fill="#ff900d" stroke="none" /><path d="M 119.79798401119884 107.00284435728193 l 28.724485329616087 10.16028197075753 a51.46846545490321,51.46846545490321 0 0,0 -0.30262413366529206,0.8326916439532002 l -28.545336934945567 -10.653221411716862" fill="#a7ff21" stroke="none" /><path d="M 119.67450827220406 107.3425965602758 l 31.938641578828527 11.919614790469993 a55.090380500282855,55.090380500282855 0 0,0 -0.33921434943128104,0.8855816262424004 l -31.72873294980374 -12.467619983545536" fill="#7cff26" stroke="none" /><path d="M 119.41010516605496 108.01547362559984 l 29.681606079739502 12.257127339715005 a53.1128464962983,53.1128464962983 0 0,0 -0.35623296738509547,0.8420295053809695 l -29.466222131162098 -12.766231370762139" fill="#93ff23" stroke="none" /><path d="M 119.26925614724726 108.34839909993367 l 28.851702675213037 12.499991011833195 a52.44313156406031,52.44313156406031 0 0,0 -0.3660004035868487,0.825234288803646 l -28.632261186894915 -12.994773637129528" fill="#9bff22" stroke="none" /><path d="M 118.97047184881838 109.00673069616215 l 24.11872671738031 11.451000165359948 a47.69903337678629,47.69903337678629 0 0,0 -0.358530337197703,0.7386786878053259 l -23.91804312356789 -11.86446780913055" fill="#d6ff1c" stroke="none" /><path d="M 118.81262510543309 109.33194174019688 l 22.492138961310406 11.157152668648205 a46.10733698994024,46.10733698994024 0 0,0 -0.3588058258813712,0.7079579343814667 l -22.296754465642767 -11.542664814732367" fill="#eaff1a" stroke="none" /><line stroke="#e1ed5e" stroke-width="0.3" x1="174.80103733775053" x2="179.2010983576182" y1="140.37084112569926" y2="142.7455964860345" /><path d="M 175.68104954172406 140.8457921977663 a86.0,86.0 0 0,1 -30.038265399797805,32.042727171017184" fill="none" id="id17" stroke="none" /><text fill="#e1ed5e" style="font-size:6.75px; font-family:Arial;" text-anchor="middle"><textPath startOffset="22.206326154141568" xlink:href="#id17">May</textPath></text><path d="M 118.48025628344425 109.97397251340804 l 17.90544426839042 9.663740926216278 a41.34681358683621,41.34681358683621 0 0,0 -0.34342188969310367,0.6234104834239282 l -17.736445969245807 -9.970521928038012" fill="#ffd413" stroke="none" /><path d="M 118.30583269289576 110.29060199501023 l 32.926725623261135 18.509719501554468 a58.772727943527556,58.772727943527556 0 0,0 -0.5033408476820265,0.8776171946599405 l -32.603232779426726 -19.073756542072722" fill="#52ff2b" stroke="none" /><path d="M 118.12598468904814 110.60418214915192 l 20.790602966085377 12.163054566424508 a45.08711415008486,45.08711415008486 0 0,0 -0.3976664666748946,0.66651187187955 l -20.578155623712256 -12.519128532190162" fill="#f7ff18" stroke="none" /><path d="M 117.94076556474637 110.91462005526583 l 21.43175074653109 13.038430030945758 a46.08626312812062,46.08626312812062 0 0,0 -0.4181458453082637,0.6741842431725705 l -21.204140261554866 -13.4054106054836" fill="#eaff1a" stroke="none" /><path d="M 117.75023020441432 111.22182372390056 l 20.628372162738383 13.041405855327907 a45.4050815357749,45.4050815357749 0 0,0 -0.4233378163177722,0.6570296920251073 l -20.40082948304356 -13.394557147274467" fill="#f3ff19" stroke="none" /><path d="M 117.55443506779139 111.5257021239791 l 20.561706638422933 13.500184139216683 a45.59753547974519,45.59753547974519 0 0,0 -0.4364268110644405,0.6523988673740211 l -20.326276721947774 -13.852119920796511" fill="#f1ff19" stroke="none" /><path d="M 117.35343817320211 111.8261652097733 l 25.628728020019192 17.465678481462906 a52.014216494084664,52.014216494084664 0 0,0 -0.5105792096553745,0.7355274323054519 l -25.324287903201682 -17.904247175955376" fill="#a0ff22" stroke="none" /><path d="M 116.93607887273984 112.41649034213515 l 19.859913331941478 14.560065758704159 a45.62542735568291,45.62542735568291 0 0,0 -0.46980879132799847,0.6293856510392719 l -19.606343273918387 -14.899764289252746" fill="#f0ff19" stroke="none" /><path d="M 116.71984013943494 112.70617746262583 l 18.954196718758983 14.40416805194473 a44.80633593231178,44.80633593231178 0 0,0 -0.47194552636497467,0.610053211723906 l -18.70344437517594 -14.72829925778189" fill="#fbff18" stroke="none" /><path d="M 116.498646956653 112.99209946851258 l 19.28974550715745 15.18999061012237 a45.55259856851219,45.55259856851219 0 0,0 -0.49041079027125273,0.6118628649695489 l -19.02541680483134 -15.519781308670169" fill="#f1ff19" stroke="none" /><path d="M 116.27256486870786 113.27417163493432 l 18.71971335778116 15.270406974735963 a45.15808347885972,45.15808347885972 0 0,0 -0.49653248154333346,0.5981053604743549 l -18.454084876344282 -15.590373592324088" fill="#f7ff19" stroke="none" /><path d="M 115.80600337817218 113.82643327865902 l 9.529787264410421 8.336260888894127 a33.661362127062986,33.661362127062986 0 0,0 -0.38524811885820637,0.43283034552445404 l -9.384880295903882 -8.499065404159449" fill="#ff6709" stroke="none" /><path d="M 115.32070863581623 114.36230785411682 l 14.074763508692676 13.194303951004157 a40.292190766657654,40.292190766657654 0 0,0 -0.47869702985095536,0.5019119219932219 l -13.845559927462757 -13.434622989579886" fill="#ffc612" stroke="none" /><path d="M 115.07121518719521 114.62390073753431 l 17.192239341906404 16.681972785152777 a44.95540251371227,44.95540251371227 0 0,0 -0.5436593296551987,0.5507240306465717 l -16.90253938719567 -16.975437309780013" fill="#f9ff18" stroke="none" /><path d="M 114.81725581225074 114.88116024355365 l 17.61277054362419 17.68873157848251 a45.96198932533143,45.96198932533143 0 0,0 -0.5654420062429816,0.5534040128754236 l -17.305678585005413 -17.989285694280504" fill="#ecff1a" stroke="none" /><path d="M 114.55890576462653 115.13401014063108 l 17.3862490598816 18.07303885564613 a46.07820547507195,46.07820547507195 0 0,0 -0.5763377806608901,0.5449633448053484 l -17.0725754448299 -18.369636837197397" fill="#ebff1a" stroke="none" /><path d="M 114.29624159901734 115.38237550388516 l 15.818098441394959 17.019852966088834 a44.23548220478638,44.23548220478638 0 0,0 -0.5622128633337146,0.5135681207170194 l -15.52278602859438 -17.289613853392435" fill="#fffb17" stroke="none" /><path d="M 114.0293411484842 115.62618273729858 l 15.774339013252503 17.56979899286389 a44.61202252994565,44.61202252994565 0 0,0 -0.5758299932878745,0.5081030184712508 l -15.46956666705804 -17.83872515310743" fill="#feff18" stroke="none" /><path d="M 113.48314897796784 116.09983520530334 l 40.449446933903516 48.299505615910014 a84.0,84.0 0 0,0 -1.1165194858212355,0.9188195245712865 l -39.612057319537584 -48.98862025933848" fill="#4dd2ff" stroke="none" /><path d="M 113.20401910651253 116.32954008644616 l 14.755362256966057 18.24810139409149 a44.46729468480213,44.46729468480213 0 0,0 -0.5993397418887048,0.47615173859772 l -14.439065022360001 -18.499387046694334" fill="#fffe18" stroke="none" /><path d="M 112.63410532772338 116.77436683061366 l 9.029359561369324 11.98832727756045 a36.008308532356054,36.008308532356054 0 0,0 -0.49831217377657705,0.3686394331983543 l -8.821662417174181 -12.141976659498571" fill="#ff890c" stroke="none" /><path d="M 112.34349029814194 116.9893568818739 l 13.693541523214558 18.847542979773806 a44.29684433184937,44.29684433184937 0 0,0 -0.6207309880664431,0.44287507855548314 l -13.367083207299231 -19.08046232017351" fill="#fffc17" stroke="none" /><path d="M 112.04921762599082 117.19931262002967 l 23.829160117688033 34.0142561167458 a62.530693361536756,62.530693361536756 0 0,0 -0.8868731674995857,0.6099994515475128 l -23.240130065565566 -34.41939635765841" fill="#30ff36" stroke="none" /><path d="M 111.7513745106137 117.40417183066458 l 13.777870242438848 20.40547860536895 a45.62139852915857,45.62139852915857 0 0,0 -0.6546134121763268,0.43384207461212293 l -13.424582131522557 -20.63961870107239" fill="#f0ff19" stroke="none" /><path d="M 111.1453310114006 117.79835938074945 l 13.604666983943565 21.725756910042207 a46.63387362569791,46.63387362569791 0 0,0 -0.6840096697353846,0.42017460602142676 l -13.228678114275871 -21.956719982892015" fill="#e3ff1b" stroke="none" /><line stroke="#e1ed5e" stroke-width="0.3" x1="143.8653032363475" x2="146.44561519142675" y1="172.8068346515853" y2="177.08958963109032" /><path d="M 144.38136562736335 173.6633856474863 a86.0,86.0 0 0,1 -40.68145358897372,12.25698825130547" fill="none" id="id18" stroke="none" /><text fill="#e1ed5e" style="font-size:6.75px; font-family:Arial;" text-anchor="middle"><textPath startOffset="21.466115282336833" xlink:href="#id18">June</textPath></text><path d="M 110.8373102113329 117.98757091392108 l 12.373837524764971 20.537871078129122 a44.97740610472981,44.97740610472981 0 0,0 -0.6665911360760048,0.39383379281245445 l -12.018478517660585 -20.747823443235326" fill="#f9ff18" stroke="none" /><path d="M 110.5260780823613 118.17145234162733 l 5.8048898619144405 10.021137849141914 a32.581016799075186,32.581016799075186 0 0,0 -0.4877087050357357,0.2769337311346166 l -5.631532389957506 -10.119574746071159" fill="#ff5708" stroke="none" /><path d="M 110.21172684928248 118.3499491758327 l 2.9119885565883203 5.232694019597343 a26.988385763829108,26.988385763829108 0 0,0 -0.40788085647277345,0.22240916430210256 l -2.821484888246897 -5.282043835659215" fill="#ff0000" stroke="none" /><path d="M 109.57404056367764 118.69057910512821 l 11.331169124025172 22.120870645739807 a45.85414073837224,45.85414073837224 0 0,0 -0.7055993521985585,0.3538021631946277 l -10.948715864143853 -22.312640649843736" fill="#edff19" stroke="none" /><path d="M 104.13013068566511 120.58985236759428 l 3.3886230504007266 16.89323017776183 a38.22974149592936,38.22974149592936 0 0,0 -0.6463236341717571,0.12386946275223137 l -3.097331801657265 -16.94905683886253" fill="#ffa90f" stroke="none" /><path d="M 103.7750983002368 120.6578951692458 l 3.0449073605938883 16.662182558601902 a37.938116437513834,37.938116437513834 0 0,0 -0.6434142471254134,0.11186581419268751 l -2.757644141996425 -16.712126951315597" fill="#ffa50f" stroke="none" /><path d="M 103.41894727170886 120.7198165907248 l 2.9356510678579824 17.790900785077223 a39.031477974272576,39.031477974272576 0 0,0 -0.6638401963221071,0.10367818610233731 l -2.628975007927358 -17.838797278526666" fill="#ffb410" stroke="none" /><path d="M 103.06178313531738 120.77559828337769 l 4.214457091236281 28.597018025243443 a49.905900582925455,49.905900582925455 0 0,0 -0.8509464823722903,0.11793342861479306 l -3.7215820176771603 -28.66532601935084" fill="#baff1f" stroke="none" /><path d="M 102.34483914955558 120.86867818915974 l 1.7346745956869232 15.438315206892614 a36.53546498757901,36.53546498757901 0 0,0 -0.6255696322567001,0.06484285018331412 l -1.4686723668246202 -15.465887425531687" fill="#ff910d" stroke="none" /><path d="M 101.62511606390274 120.93702456842531 l 2.567481125824931 33.07789308369195 a54.17738642792139,54.17738642792139 0 0,0 -0.930399193789458,0.06416577572587376 l -1.9977191712565425 -33.1171872039341" fill="#87ff25" stroke="none" /><line stroke="#e1ed5e" stroke-width="0.3" x1="102.19456741930631" x2="102.32365962044197" y1="184.97166512339345" y2="189.96999836594603" /><path d="M 102.22038585953345 185.97133177190398 a86.0,86.0 0 0,1 -42.740103519485714,-10.115201625700543" fill="none" id="id19" stroke="none" /><text fill="#e1ed5e" style="font-size:6.75px; font-family:Arial;" text-anchor="middle"><textPath startOffset="22.20632615414155" xlink:href="#id19">July</textPath></text><line stroke="#e1ed5e" stroke-width="0.3" x1="58.666819895761336" x2="56.23545636021788" y1="174.27360380694188" y2="178.64263932499728" /><path d="M 58.180547188652646 175.14741091055294 a86.0,86.0 0 0,1 -31.652253787137756,-30.449443065178592" fill="none" id="id20" stroke="none" /><text fill="#e1ed5e" style="font-size:6.75px; font-family:Arial;" text-anchor="middle"><textPath startOffset="22.20632615414155" xlink:href="#id20">August</textPath></text><line stroke="#e1ed5e" stroke-width="0.3" x1="26.63291911575756" x2="22.317208475507996" y1="142.92168965132927" y2="145.44649492493687" /><path d="M 25.769776987707644 143.4266507060508 a86.0,86.0 0 0,1 -11.730757126820373,-40.83630448921669" fill="none" id="id21" stroke="none" /><text fill="#e1ed5e" style="font-size:6.75px; font-family:Arial;" text-anchor="middle"><textPath startOffset="21.46611528233685" xlink:href="#id21">September</textPath></text><line stroke="#e1ed5e" stroke-width="0.3" x1="15.007084014347285" x2="10.007500721073583" y1="101.09737516637583" y2="101.16192664675087" /><path d="M 14.007167355692545 101.11028546245083 a86.0,86.0 0 0,1 10.666146001902534,-42.60595125391555" fill="none" id="id22" stroke="none" /><text fill="#e1ed5e" style="font-size:6.75px; font-family:Arial;" text-anchor="middle"><textPath startOffset="22.20632615414155" xlink:href="#id22">October</textPath></text><line stroke="#e1ed5e" stroke-width="0.3" x1="26.266209847984243" x2="21.928928074336255" y1="57.711370442889674" y2="55.22380399835377" /><path d="M 25.398753493254645 57.213857153982495 a86.0,86.0 0 0,1 29.58750427330803,-30.492523968695096" fill="none" id="id23" stroke="none" /><text fill="#e1ed5e" style="font-size:6.75px; font-family:Arial;" text-anchor="middle"><textPath startOffset="21.46611528233685" xlink:href="#id23">November</textPath></text><line stroke="#e1ed5e" stroke-width="0.3" x1="56.76296977257108" x2="54.21961505331056" y1="26.818313649435495" y2="22.513508569990535" /><path d="M 56.25429882871898 25.957352633546506 a86.0,86.0 0 0,1 42.26535254187918,-11.944610805530505" fill="none" id="id24" stroke="none" /><text fill="#e1ed5e" style="font-size:6.75px; font-family:Arial;" text-anchor="middle"><textPath startOffset="22.20632615414155" xlink:href="#id24">December</textPath></text></svg>