<?xml version="1.0" encoding="utf-8" ?>
<svg baseProfile="full" height="200mm" version="1.1" viewBox="0,0,200,200" width="200mm" xmlns="http://www.w3.org/2000/svg" xmlns:ev="http://www.w3.org/2001/xml-events" xmlns:xlink="http://www.w3.org/1999/xlink"><defs /><rect fill="#1a1a1a" height="200" width="200" x="0" y="0" /><text alignment-baseline="middle" fill="#e1ed5e" style="dominant-baseline: central; font-size:9.0px; font-family:Arial;" text-anchor="middle" x="100.0" y="100.0">2021</text><line stroke="#e1ed5e" stroke-width="0.3" x1="100.0" x2="100.0" y1="15.0" y2="10.0" /><path d="M 100.0 14.0 a86.0,86.0 0 0,1 42.46469731375804,11.215312516191453" fill="none" id="id13" stroke="none" /><text fill="#e1ed5e" style="font-size:6.75px; font-family:Arial;" text-anchor="middle"><textPath startOffset="22.20632615414155" xlink:href="#id13">January</textPath></text><path d="M 100.0 79.0 l 0.0 -3.0696351278835863 a24.069635127883586,24.069635127883586 0 0,0 0.4143192019972497,0.00356617617683066 l -0.05283872272472132 3.0691803283153143" fill="#ff1802" stroke="none" /><path d="M 100.36148047927253 79.00311137660856 l 0.12463510954388454 -7.239532045889973 a28.240604819626526,28.240604819626526 0 0,0 0.4859715422762129,0.012551211181288307 l -0.24923328701496525 7.236314042566326" fill="#ff5307" stroke="none" /><path d="M 100.72285384407766 79.0124445844662 l 0.14189648131475027 -4.119865017336239 a25.1223078939449,25.1223078939449 0 0,0 0.432054847973146,0.01860519060523865 l -0.21279216167722778 4.116812100206805" fill="#ff2703" stroke="none" /><path d="M 101.44485096284872 79.0497635885617 l 0.16291556532404808 -2.3622641340893074 a23.36787527556448,23.36787527556448 0 0,0 0.40104816681288685,0.03112905638317041 l -0.2035539214992761 2.359109815517672" fill="#ff0e01" stroke="none" /><path d="M 101.80526077348638 79.07773832637324 l 0.2631273267813037 -3.0495421300095527 a24.06087294620379,24.06087294620379 0 0,0 0.41232874255299384,0.03915558244885687 l -0.31558119642454174 3.0445610030455175" fill="#ff1802" stroke="none" /><path d="M 102.16513564639614 79.11191278185805 l 0.36259321935500005 -3.4981082146981577 a24.516850142451474,24.516850142451474 0 0,0 0.41939375696337644,0.0471237752335342 l -0.42275367982810175 3.4913484859940227" fill="#ff1e03" stroke="none" /><path d="M 102.52436894288641 79.15227682838746 l 0.4093236538134037 -3.3804354337117997 a24.405126954324235,24.405126954324235 0 0,0 0.4166132648581622,0.0540883586593512 l -0.467451647179412 3.3728887518883117" fill="#ff1d02" stroke="none" /><path d="M 102.88285421437855 79.19881850522331 l 0.4341863947553151 -3.132863935616997 a24.162807971483605,24.162807971483605 0 0,0 0.41149379288325166,0.060643488488404514 l -0.4880491680672226 3.124925962967624" fill="#ff1902" stroke="none" /><path d="M 103.2404852339499 79.25152402106235 l 0.49478396053912427 -3.16804810972589 a24.206452867756607,24.206452867756607 0 0,0 0.41113022670974525,0.06784001010682456 l -0.5492433933877447 3.1590618366794407" fill="#ff1a02" stroke="none" /><path d="M 103.59715602781102 79.31037775812273 l 0.5323731158915898 -3.062029718580441 a24.107965111128813,24.107965111128813 0 0,0 0.4082338101808787,0.0746021194457093 l -0.5850020471753693 3.052412117783993" fill="#ff1802" stroke="none" /><path d="M 103.95276090670814 79.375362276772 l 0.5768111708707463 -3.0096739253140337 a24.064449096258,24.064449096258 0 0,0 0.4061547189229673,0.08147081571073063 l -0.6285322992608389 2.9992991535260947" fill="#ff1802" stroke="none" /><path d="M 104.307194497241 79.44645832069477 l 0.938272849852222 -4.477352981935489 a25.57460879918889,25.57460879918889 0 0,0 0.43008853211241727,0.0940006947988552 l -1.0152041061181674 4.460538789040763" fill="#ff2d04" stroke="none" /><path d="M 104.66035177308747 79.52364482259891 l 0.4819508217856485 -2.1175646572244364 a23.171717447585184,23.171717447585184 0 0,0 0.38815530145036575,0.09186381905848685 l -0.5183298101985379 2.1089549260250813" fill="#ff0b01" stroke="none" /><path d="M 105.01212808612495 79.60689891045804 l 0.8103372090351479 -3.297060317795536 a24.395180868750423,24.395180868750423 0 0,0 0.4069245246306858,0.10373412188085562 l -0.8669706223508588 3.282623199745813" fill="#ff1c02" stroke="none" /><path d="M 105.36241919743992 79.69619591428918 l 0.8283830377063365 -3.1365184791120355 a24.24406637215869,24.24406637215869 0 0,0 0.40256938656058033,0.11003742049368452 l -0.8822503134906277 3.121794517792057" fill="#ff1a02" stroke="none" /><path d="M 105.71112130821622 79.79150937346287 l 0.8245382680133516 -2.917583598933098 a24.031857089669938,24.031857089669938 0 0,0 0.3971090236375276,0.11592701344621274 l -0.8746375093743063 2.9029582565681813" fill="#ff1702" stroke="none" /><path d="M 106.0581310904928 79.89281104454417 l 1.2390651307136127 -4.1125086828302 a25.2951146741972,25.2951146741972 0 0,0 0.41582112307107755,0.12919764705169362 l -1.3096716264954085 4.090570900895986" fill="#ff2904" stroke="none" /><path d="M 106.40334571778207 80.00007090966166 l 1.882447540529808 -5.879554062234581 a27.17355365357635,27.17355365357635 0 0,0 0.44424513095190843,0.14646063508048246 l -1.983375493724134 5.846279702894861" fill="#ff4406" stroke="none" /><path d="M 106.74666289553966 80.11325718540242 l 1.313088495374999 -3.8705140014618706 a25.087184854175128,25.087184854175128 0 0,0 0.4077479837200595,0.1422552651783949 l -1.3795184831583323 3.847337883111268" fill="#ff2603" stroke="none" /><path d="M 107.08798089147638 80.2323363322302 l 1.3855620348678426 -3.8641927391529998 a25.105090459148236,25.105090459148236 0 0,0 0.4055281141343498,0.14935942682821884 l -1.4518724747747689 3.839770044518456" fill="#ff2703" stroke="none" /><path d="M 107.4271985657038 80.35727306442388 l 1.504480820264941 -3.978903441297107 a25.253837694801135,25.253837694801135 0 0,0 0.4052842119768563,0.1572439777790087 l -1.5727481972414643 3.952416759627552" fill="#ff2904" stroke="none" /><path d="M 107.76421540070413 80.48803036053334 l 1.1295759260968956 -2.83869651188145 a24.05518242653128,24.05518242653128 0 0,0 0.3834122656263797,0.15640349005766274 l -1.1782720613116628 2.818832135640208" fill="#ff1802" stroke="none" /><path d="M 108.09893153111575 80.62456947434976 l 2.8596805528732046 -6.841339708191684 a28.41496472462017,28.41496472462017 0 0,0 0.4496549666574535,0.19251879018760024 l -2.977019277320973 6.791101390041293" fill="#ff5607" stroke="none" /><path d="M 108.43124777332544 80.76684994638697 l 0.9616277029074246 -2.193640894322206 a23.395159329197483,23.395159329197483 0 0,0 0.3674353280041932,0.16485752119274924 l -0.999245149378398 2.1767630426129254" fill="#ff0e01" stroke="none" /><path d="M 108.76106565485865 80.91482961587045 l 1.2164563046166779 -2.649937433762157 a23.915807665792727,23.915807665792727 0 0,0 0.3726558744102611,0.17496692980535317 l -1.261890390326537 2.6286055213168007" fill="#ff1602" stroke="none" /><path d="M 109.41281617654863 81.2277094730956 l 1.5518031759006543 -3.0948123826275946 a24.462074057613506,24.462074057613506 0 0,0 0.3747817038030629,0.19197774528827977 l -1.604845367292473 3.0676421120268142" fill="#ff1d03" stroke="none" /><path d="M 109.73455568895987 81.39251694778311 l 1.652551575288668 -3.1588319398051365 a24.56498891063102,24.56498891063102 0 0,0 0.3729842093396098,0.19923524736804585 l -1.7066808311565889 3.1299179659353364" fill="#ff1f03" stroke="none" /><path d="M 110.05341064243156 81.56283822128135 l 4.515406173369076 -8.280898600088925 a30.431976173393053,30.431976173393053 0 0,0 0.457748961671839,0.2547368015760941 l -4.657279224112951 8.20194640095265" fill="#ff710a" stroke="none" /><path d="M 110.36928655335952 81.73862282372117 l 16.388457366118157 -28.861754351179265 a54.190094893942195,54.190094893942195 0 0,0 0.8071827976590052,0.46757237644862054 l -16.882836896242488 28.575377817340595" fill="#6dff28" stroke="none" /><line stroke="#e1ed5e" stroke-width="0.3" x1="143.23703022742887" x2="145.7803849466894" y1="26.81831364943548" y2="22.513508569990506" /><path d="M 143.74570117128098 25.957352633546492 a86.0,86.0 0 0,1 28.547481713284135,27.462654790039103" fill="none" id="id14" stroke="none" /><text fill="#e1ed5e" style="font-size:6.75px; font-family:Arial;" text-anchor="middle"><textPath startOffset="19.985693538727396" xlink:href="#id14">February</textPath></text><path d="M 110.68208982089419 81.91981866633111 l 1.8047943496268792 -3.054740192074461 a24.54805866432902,24.54805866432902 0 0,0 0.3619528649138599,0.21807255119235294 l -1.8571092807583767 3.0232210314234935" fill="#ff1f03" stroke="none" /><path d="M 110.99172775467656 82.1063720568725 l 1.820547270001821 -2.96370108770472 a24.47820593116239,24.47820593116239 0 0,0 0.35712635626646794,0.22363249153122733 l -1.8712927786405522 2.931924254850548" fill="#ff1e03" stroke="none" /><path d="M 111.2981086023043 82.29822771554956 l 1.985909275438394 -3.1115043242033096 a24.691245698921726,24.691245698921726 0 0,0 0.3562981724397786,0.2317462424332809 l -2.039174473662453 3.076859157610501" fill="#ff2103" stroke="none" /><path d="M 111.60114157652 82.49532879139004 l 2.2872738898307183 -3.4512101366437484 a25.14034699685593,25.14034699685593 0 0,0 0.358663330535649,0.24217108181627894 l -2.346341914772909 3.4113271425287994" fill="#ff2703" stroke="none" /><path d="M 111.90073688211348 82.69761687909136 l 2.3971087408484557 -3.4851366119165177 a25.229929966225566,25.229929966225566 0 0,0 0.35570460064212855,0.2491938043333128 l -2.4567444810742356 3.443357964819269" fill="#ff2803" stroke="none" /><path d="M 112.19680574252982 82.90503203632743 l 13.017182992139285 -18.24480367445194 a43.41249459944464,43.41249459944464 0 0,0 0.60458035116064,0.4392533367146175 l -13.329308659653712 18.018031102920645" fill="#e6ff1a" stroke="none" /><path d="M 112.48926042617603 83.11751280151076 l 2.3966639642861693 -3.2397153486637897 a25.02985777640795,25.02985777640795 0 0,0 0.3441651287532592,0.2592180396855614 l -2.4520752467978117 3.1979807194723806" fill="#ff2603" stroke="none" /><path d="M 112.77801427241765 83.33499621200491 l 2.155750093937102 -2.811515366591881 a24.542862842969242,24.542862842969242 0 0,0 0.3330436625444526,0.25994586126698305 l -2.203826311640985 2.7739911161016715" fill="#ff1f03" stroke="none" /><path d="M 113.06298171725822 83.55741782278167 l 2.5962162626011427 -3.267898568000888 a25.173667443979802,25.173667443979802 0 0,0 0.33696344591287786,0.27246767235795954 l -2.6520831070785116 3.222724798378801" fill="#ff2803" stroke="none" /><path d="M 113.34407831869373 83.78471172551755 l 2.302603997995447 -2.798049195886839 a24.623681066841783,24.623681066841783 0 0,0 0.3249651247617943,0.2721489464913191 l -2.350426659716359 2.7579990920017003" fill="#ff2003" stroke="none" /><path d="M 113.6212207817346 84.01681056812373 l 2.1609222296499975 -2.5356339125170546 a24.331519806470023,24.331519806470023 0 0,0 0.3164328070236213,0.2744074120702224 l -2.204248835320383 2.498061507027159" fill="#ff1c02" stroke="none" /><path d="M 113.89432698308785 84.25364557470405 l 1.9993930253133263 -2.2658996905981548 a24.021899051511216,24.021899051511216 0 0,0 0.3076965191397536,0.27625297296113754 l -2.03810053204907 2.231147708867722" fill="#ff1702" stroke="none" /><path d="M 114.16331599549186 84.49514656593476 l 0.9747872795525008 -1.0671183149245154 a22.445320635161867,22.445320635161867 0 0,0 0.28301637856608114,0.26303287963797967 l -0.9930115419134287 1.0501808492118951" fill="#ff0000" stroke="none" /><path d="M 114.42810811169701 84.74124197986012 l 2.907576494498231 -3.0749704542778633 a25.23195514697881,25.23195514697881 0 0,0 0.3130165291527528,0.3011216530422799 l -2.9600762672634047 3.0244657144732816" fill="#ff2903" stroke="none" /><path d="M 114.68862486808459 84.99185889309783 l 1.9862098447776024 -2.029415134912333 a23.839640001356283,23.839640001356283 0 0,0 0.2908029669165037,0.289554166559683 l -2.0208486118614264 1.9949251177025313" fill="#ff1402" stroke="none" /><path d="M 114.94478906791727 85.2469230424477 l 1.458294496157088 -1.43958745960265 a23.0491546772675,23.0491546772675 0 0,0 0.2762998058906124,0.2847512374088923 l -1.4828585657508095 1.4142720266436435" fill="#ff0901" stroke="none" /><path d="M 115.19652480421416 85.50635884689758 l 1.9628356016891229 -1.8720487229769072 a23.712432491410205,23.712432491410205 0 0,0 0.279166104164093,0.2977949356285416 l -1.994769027823679 1.8379843704703107" fill="#ff1302" stroke="none" /><path d="M 115.4437574822437 85.77008943001954 l 1.129516895378214 -1.0407392389445154 a22.53588625243657,22.53588625243657 0 0,0 0.26040362445273285,0.2875441860833746 l -1.1472641604469824 1.0211422655915918" fill="#ff0100" stroke="none" /><path d="M 115.9244219780498 86.31012108654704 l 28.713858412988774 -24.68467900145339 a58.86580307303623,58.86580307303623 0 0,0 0.6539412897855615,0.7740602234054472 l -29.134510316261455 24.186759828418836" fill="#3dff2e" stroke="none" /><path d="M 116.15771136456269 86.58626213691792 l 6.533435492190707 -5.423898784936281 a29.491434352325317,29.491434352325317 0 0,0 0.3208970104921872,0.3933817915737993 l -6.625830994759303 5.31063282375438" fill="#ff6409" stroke="none" /><path d="M 116.38621287248628 86.86637796730983 l 2.1180495626854348 -1.6976260847631979 a23.714418588512167,23.714418588512167 0 0,0 0.2525539499241616,0.3207178691485194 l -2.14695759320356 1.6609158216616402" fill="#ff1302" stroke="none" /><path d="M 116.60985879189232 87.15038557335679 l 3.5418172072643874 -2.739998337927633 a25.47795265958901,25.47795265958901 0 0,0 0.26536386859443584,0.3491877454672394 l -3.5884570160829368 2.67862581657936" fill="#ff2c04" stroke="none" /><path d="M 116.82858285166822 87.43820079747576 l 3.2797684535921956 -2.4482033399927374 a25.092747329500092,25.092747329500092 0 0,0 0.25539325043157274,0.3483561065719576 l -3.3214243165373944 2.3913847897492864" fill="#ff2703" stroke="none" /><path d="M 117.04232023915458 87.72973835380427 l 3.80579079542375 -2.740122716579662 a25.689596579712166,25.689596579712166 0 0,0 0.2552902194531077,0.3610899108332398 l -3.8523936346807406 2.674206305414629" fill="#ff2f04" stroke="none" /><path d="M 117.2510076193507 88.02491185347247 l 1.9342568455646616 -1.3426981620296177 a23.354609925004876,23.354609925004876 0 0,0 0.22640129498005573,0.33221596393076386 l -1.9570826062134508 1.3092041748284473" fill="#ff0d01" stroke="none" /><path d="M 117.45458315368197 88.32363383020206 l 29.789811783156647 -19.928104122963468 a56.840789891010665,56.840789891010665 0 0,0 0.5370192363471317,0.8179171397287552 l -30.128427654861706 19.412368919257037" fill="#52ff2b" stroke="none" /><path d="M 117.65298651832404 88.62581576622439 l 6.0629225061961725 -3.906466336956502 a28.212455099195726,28.212455099195726 0 0,0 0.25951751272927065,0.41049438187221865 l -6.129267615171399 3.8015243073700766" fill="#ff5307" stroke="none" /><line stroke="#e1ed5e" stroke-width="0.3" x1="172.23445277983987" x2="176.4835382374775" y1="55.19839476539836" y2="52.563006222186495" /><path d="M 173.08426987136738 54.67131705675599 a86.0,86.0 0 0,1 12.851231095245387,41.99856678651699" fill="none" id="id15" stroke="none" /><text fill="#e1ed5e" style="font-size:6.75px; font-family:Arial;" text-anchor="middle"><textPath startOffset="22.20632615414155" xlink:href="#id15">March</textPath></text><path d="M 117.84615892207809 88.93136811851018 l 4.029343931746234 -2.4990993803847936 a25.741424915923467,25.741424915923467 0 0,0 0.23030509863349458,0.3785610275051124 l -4.071764828665953 2.4293705796725997" fill="#ff3004" stroke="none" /><path d="M 118.3937258080291 89.86733742301442 l 4.463421082448893 -2.4587916683914317 a26.095859518059772,26.095859518059772 0 0,0 0.21335465348493327,0.39531376995140344 l -4.505083835152291 2.3815969151075693" fill="#ff3505" stroke="none" /><path d="M 118.56541770881063 90.18545643968196 l 2.173773556000548 -1.1491578369125532 a23.45883208188457,23.45883208188457 0 0,0 0.18564936195666878,0.3586154762951948 l -2.193232351117333 1.1115696383570135" fill="#ff0f01" stroke="none" /><path d="M 118.73160827565052 90.50648371742162 l 4.28514303724614 -2.171787632894051 a25.804072477809907,25.804072477809907 0 0,0 0.19738885088498578,0.3979238785531849 l -4.321891901084534 2.097704165841916" fill="#ff3104" stroke="none" /><path d="M 118.89224826269711 90.83032412892265 l 15.919803724366966 -7.726949066821892 a38.695928698534814,38.695928698534814 0 0,0 0.2856898417329266,0.6017356666828294 l -16.050451759941648 7.4517709844985225" fill="#ffde14" stroke="none" /><path d="M 119.04729006885535 91.15688171328212 l 2.113533085177575 -0.9812536590534668 a23.330210472370695,23.330210472370695 0 0,0 0.16597520901569715,0.36570437221842167 l -2.1301106111566193 0.9447272779929824" fill="#ff0d01" stroke="none" /><path d="M 119.196687751892 91.48605970444005 l 4.309895159510153 -1.911485488665913 a25.714761187944667,25.714761187944667 0 0,0 0.17597381318497676,0.4061718229901177 l -4.34215968253781 1.8370145210891926" fill="#ff2f04" stroke="none" /><path d="M 119.34039704204932 91.81776055985345 l 2.8624387265768867 -1.2109968059434695 a24.10806510990558,24.10806510990558 0 0,0 0.15839953125249961,0.3835770290660447 l -2.882859944715584 1.1615452064241218" fill="#ff1802" stroke="none" /><path d="M 119.47837535516314 92.15188598940014 l 3.892818045150656 -1.5684716658242528 a25.196919787075288,25.196919787075288 0 0,0 0.15862834852213165,0.403691844567742 l -3.919239943554488 1.5012308163607264" fill="#ff2803" stroke="none" /><path d="M 119.61058180528143 92.48833698450437 l 6.552417411545707 -2.5098465726877084 a28.016659016480677,28.016659016480677 0 0,0 0.16862748310465364,0.451837818410501 l -6.594649483151986 2.3966856172478743" fill="#ff5007" stroke="none" /><path d="M 119.7369772167798 92.82701384747503 l 1.8058078364622356 -0.6562825939755554 a22.921366384993686,22.921366384993686 0 0,0 0.13157619530193246,0.37198362235957416 l -1.8168371125739777 0.6251013451893667" fill="#ff0701" stroke="none" /><path d="M 119.85752413597 93.16781622104841 l 2.062243505446871 -0.7095359184602656 a23.18089190363554,23.18089190363554 0 0,0 0.1265706570692817,0.37843015441983935 l -2.0741514562879226 0.6739326611181122" fill="#ff0b01" stroke="none" /><path d="M 119.97218684219823 93.5106431181261 l 3.335326126723022 -1.0837131519325205 a24.506969427764194,24.506969427764194 0 0,0 0.12690469212997993,0.40232255388640664 l -3.3534863026212083 1.0261404316196947" fill="#ff1e03" stroke="none" /><path d="M 120.08093135843002 93.85539295169968 l 2.2009325262708055 -0.6734680415149003 a23.301665307584642,23.301665307584642 0 0,0 0.11406065624269204,0.3845558302607961 l -2.2121990796252 0.6354828245075742" fill="#ff0d01" stroke="none" /><path d="M 120.18372546131832 94.20196356495316 l 6.124411658445272 -1.7593165348460913 a27.372096423617837,27.372096423617837 0 0,0 0.12618957386377838,0.45397103743202977 l -6.153788002875413 1.6536341939951096" fill="#ff4706" stroke="none" /><path d="M 120.28053869075195 94.5502522615342 l 5.357778628828931 -1.439732070774607 a26.547848255959508,26.547848255959508 0 0,0 0.11479247631389099,0.442342238035569 l -5.381767437013124 1.3472934071901876" fill="#ff3b05" stroke="none" /><path d="M 120.45610955862082 95.25157060432595 l 20.951994959791858 -4.863538126836173 a42.50907008464877,42.50907008464877 0 0,0 0.1593191628088394,0.7141965675235548 l -21.032608509602735 4.5021633897626545" fill="#f1ff19" stroke="none" /><path d="M 120.53481517161879 95.60439243477599 l 5.181168860359924 -1.1090620903555881 a26.298540315957524,26.298540315957524 0 0,0 0.09094373876917501,0.44347396824992946 l -5.199491895044096 1.019712465942247" fill="#ff3805" stroke="none" /><path d="M 120.6074358757038 95.95851677861258 l 4.61867711849892 -0.9058043995384712 a25.70666123012574,25.70666123012574 0 0,0 0.08142190297220475,0.4349590614431847 l -4.633584745380984 0.8261672606327237" fill="#ff2f04" stroke="none" /><path d="M 120.67395015179393 96.31383870115 l 3.4316608057040665 -0.6118644555050873 a24.485781691000746,24.485781691000746 0 0,0 0.07041194169246384,0.4155752656604064 l -3.441684608916753 0.5527034015288435" fill="#ff1e03" stroke="none" /><path d="M 120.73433829027371 96.67025291283417 l 3.2913477470270736 -0.5285606620325157 a24.333518616313466,24.333518616313466 0 0,0 0.06285476080095655,0.41413434057591486 l -3.2999584012673298 0.47182720906451814" fill="#ff1c02" stroke="none" /><path d="M 120.87857604477298 97.74499172005257 l 4.569132820465105 -0.4934930581584302 a25.595705618237744,25.595705618237744 0 0,0 0.04354057975595144,0.4384476961793374 l -4.576950525903285 0.41476983127465783" fill="#ff2e04" stroke="none" /><path d="M 120.91429891909075 98.10471618934814 l 2.656639242846459 -0.24074846434910854 a23.667525424380855,23.667525424380855 0 0,0 0.033275995470003636,0.40605142973979613 l -2.6603897221359576 0.19498311740154364" fill="#ff1202" stroke="none" /><path d="M 120.94382443527127 98.46500227214037 l 16.427710925321236 -1.204006413548623 a37.47177336202101,37.47177336202101 0 0,0 0.04161045756280076,0.6436953612720784 l -16.446001973888453 0.9210519880235094" fill="#ffce13" stroke="none" /><path d="M 120.96714384426684 98.82574320788733 l 3.553307976198862 -0.1990016406865325 a24.55887611848381,24.55887611848381 0 0,0 0.02000541696322912,0.42228273334315036 l -3.5562070013955873 0.1378078007203824" fill="#ff1f03" stroke="none" /><path d="M 120.98425023603335 99.18683210126433 l 15.656835219707595 -0.6067234069958788 a36.66858648346024,36.66858648346024 0 0,0 0.019012322548167555,0.6309264261048743 l -15.66495923671141 0.3371268334660055" fill="#ffc412" stroke="none" /><line stroke="#e1ed5e" stroke-width="0.3" x1="184.98032266829074" x2="189.97916517819016" y1="98.17113171792111" y2="98.06355123074" /><path d="M 185.9800911702706 98.14961562048488 a86.0,86.0 0 0,1 -9.607161424134198,41.387399972396054" fill="none" id="id16" stroke="none" /><text fill="#e1ed5e" style="font-size:6.75px; font-family:Arial;" text-anchor="middle"><textPath startOffset="21.466115282336823" xlink:href="#id16">April</textPath></text><path d="M 120.99513854157772 99.54816195383933 l 3.785994475472002 -0.08147868818225004 a24.78687112864069,24.78687112864069 0 0,0 0.005508578625308,0.4266454851967403 l -3.7868360612150256 0.016296944925047043" fill="#ff2203" stroke="none" /><path d="M 120.99980553446 99.90962569577887 l 4.6473288684474445 -0.020000142967205325 a25.6473719043373,25.6473719043373 0 0,0 -0.0018999850470810384,0.44148961201919273 l -4.646984586110861 -0.05999894725567213" fill="#ff2e04" stroke="none" /><path d="M 120.99824983174949 100.27111621757518 l 62.994749495248485 0.8133486527255557 a84.0,84.0 0 0,0 -0.03111174925997018,1.4456407368395405 l -62.97141568330351 -1.8975792053552112" fill="#4dd2ff" stroke="none" /><path d="M 120.9904718944345 100.63252640178507 l 9.310282570429987 0.2805558428363761 a30.314508742934436,30.314508742934436 0 0,0 -0.0202065936221255,0.5214423954067027 l -9.304073843956658 -0.44077548525708493" fill="#ff700a" stroke="none" /><path d="M 120.9764740272857 100.99374915477107 l 6.68383912649469 0.3166432773182009 a27.691335325174798,27.691335325174798 0 0,0 -0.026654425510421336,0.4759326729188382 l -6.67739835009674 -0.43164766657246245" fill="#ff4b07" stroke="none" /><path d="M 120.95626037817324 101.35467743843564 l 4.822914715203505 0.3117681129306034 a25.832981037244696,25.832981037244696 0 0,0 -0.03250458376013869,0.44349922039505907 l -4.8168335727790295 -0.39474046982243277" fill="#ff3104" stroke="none" /><path d="M 120.92983693683757 101.71520430193887 l 4.436323348394897 0.3635575812139369 a25.45119522896624,25.45119522896624 0 0,0 -0.03954073902742846,0.436328760291032 l -4.429408013090392 -0.4398677300535394" fill="#ff2c04" stroke="none" /><path d="M 120.89721153311464 102.0752229133903 l 4.449746304418927 0.441887448718745 a25.471633559564676,25.471633559564676 0 0,0 -0.047083342466231914,0.43593327566239654 l -4.441480660451643 -0.518417046265933" fill="#ff2c04" stroke="none" /><path d="M 120.8583938346157 102.4346265915055 l 6.906234276094325 0.8061072079213536 a27.95312021375748,27.95312021375748 0 0,0 -0.05989753435526232,0.47744228252118803 l -6.891335232492214 -0.9248672447299365" fill="#ff4f07" stroke="none" /><path d="M 120.81339534386255 102.79330883721812 l 26.356321194474667 3.537209748470694 a47.592621527615336,47.592621527615336 0 0,0 -0.11595817357467461,0.8110111959037998 l -26.29152896988339 -3.9903664163549033" fill="#b5ff1f" stroke="none" /><path d="M 120.76222939487914 103.15116336523771 l 4.387294006046297 0.6658764760488539 a25.437537625400488,25.437537625400488 0 0,0 -0.06943023952650824,0.4323421678079059 l -4.3751820121585 -0.7412978735499648" fill="#ff2b04" stroke="none" /><path d="M 120.70491114924044 103.5080841355445 l 4.607863004758514 0.7807215877064392 a25.67353481511939,25.67353481511939 0 0,0 -0.0775751010356202,0.4350823639570905 l -4.593741461383705 -0.8599227023967481" fill="#ff2f04" stroke="none" /><path d="M 120.64145759157962 103.86396538481128 l 3.888465046092113 0.7278989030444103 a24.956007738583608,24.956007738583608 0 0,0 -0.08267576814443364,0.42156196059279394 l -3.875359344972015 -0.7947245907051492" fill="#ff2503" stroke="none" /><path d="M 120.5718875245553 104.21870165774334 l 4.771707169374648 0.9785397145341311 a25.871009062112485,25.871009062112485 0 0,0 -0.09321689380254215,0.4354782943436105 l -4.754156236847662 -1.0605318282939107" fill="#ff3204" stroke="none" /><path d="M 120.49622156327973 104.57218783832717 l 4.252479829059633 0.9486205297464017 a25.357001905670387,25.357001905670387 0 0,0 -0.09869842787939956,0.42519024412660533 l -4.23552083524968 -1.0216794312215718" fill="#ff2a04" stroke="none" /><path d="M 120.41448212921028 104.9243191809786 l 4.520607862336936 1.0904472553009892 a25.650265654950907,25.650265654950907 0 0,0 -0.10722871951574667,0.42832543225011444 l -4.501167828526128 -1.1681005269484996" fill="#ff2f04" stroke="none" /><path d="M 120.32669344350535 105.2749913415812 l 8.188622557659345 2.125033922078013 a29.459864571125813,29.459864571125813 0 0,0 -0.13160412219657316,0.48974789662859336 l -8.150830359120995 -2.2656727518821542" fill="#ff6409" stroke="none" /><path d="M 120.23288151984713 105.62410040840565 l 28.59232881226812 7.947762062097076 a50.6763910997373,50.6763910997373 0 0,0 -0.24085128418064386,0.8384349169528506 l -28.45128489120138 -8.438754454554509" fill="#93ff23" stroke="none" /><path d="M 120.13307415673323 105.97154293290107 l 4.336831944422324 1.286320109253344 a25.523574995247834,25.523574995247834 0 0,0 -0.12855766211567296,0.42013387809056824 l -4.314047509800518 -1.3607809598959693" fill="#ff2d04" stroke="none" /><path d="M 120.02730092923936 106.31721596034902 l 4.312460858728225 1.3602804821974113 a25.5219112826669,25.5219112826669 0 0,0 -0.13576167900713182,0.4178314844595237 l -4.288406928704846 -1.4343108666347304" fill="#ff2d04" stroke="none" /><path d="M 119.9155931802556 106.66101706037122 l 2.741613836800512 0.9169667393077185 a23.89089509168573,23.89089509168573 0 0,0 -0.13379944379788594,0.3888838138080017 l -2.725423562059395 -0.9640232562050206" fill="#ff1502" stroke="none" /><path d="M 119.79798401119884 107.00284435728193 l 4.567511773145306 1.6155975289856053 a25.844823956913746,25.844823956913746 0 0,0 -0.1519623208223688,0.4181350416833412 l -4.539025191317711 -1.6939803676750775" fill="#ff3104" stroke="none" /><path d="M 119.67450827220406 107.3425965602758 l 5.7619119838791795 2.1503660741150297 a27.1500978823654,27.1500978823654 0 0,0 -0.16717442694219356,0.4364396763457108 l -5.724043277343479 -2.2492293172938846" fill="#ff4406" stroke="none" /><path d="M 119.41010516605496 108.01547362559984 l 5.3789273947405585 2.2212476592841814 a26.819518973400285,26.819518973400285 0 0,0 -0.17988109201417246,0.4251857655059342 l -5.339895321534074 -2.3135079504562794" fill="#ff3f05" stroke="none" /><path d="M 119.26925614724726 108.34839909993367 l 5.51177050331815 2.387972818323641 a27.006831799068504,27.006831799068504 0 0,0 -0.188480570157926,0.4249739282887794 l -5.469848848428951 -2.482495083105108" fill="#ff4206" stroke="none" /><path d="M 119.12269723197855 108.67885076344098 l 27.888752962121533 12.65733186069392 a51.62663206449544,51.62663206449544 0 0,0 -0.37423256415651746,0.8060636499013014 l -27.666745781125186 -13.135515577874054" fill="#89ff25" stroke="none" /><path d="M 118.97047184881838 109.00673069616215 l 4.110444149423664 1.951541521503074 a25.55019399758755,25.55019399758755 0 0,0 -0.19204832930387947,0.39567644120215234 l -4.07624256350507 -2.0220069186705016" fill="#ff2d04" stroke="none" /><path d="M 118.81262510543309 109.33194174019688 l 17.393582429601544 8.628030217828389 a40.41596289590355,40.41596289590355 0 0,0 -0.31451573420558815,0.6205693817030609 l -17.242488025609685 -8.926153811234144" fill="#fff316" stroke="none" /><line stroke="#e1ed5e" stroke-width="0.3" x1="174.80103733775053" x2="179.2010983576182" y1="140.37084112569926" y2="142.7455964860345" /><path d="M 175.68104954172406 140.8457921977663 a86.0,86.0 0 0,1 -30.038265399797805,32.042727171017184" fill="none" id="id17" stroke="none" /><text fill="#e1ed5e" style="font-size:6.75px; font-family:Arial;" text-anchor="middle"><textPath startOffset="22.206326154141568" xlink:href="#id17">May</textPath></text><path d="M 118.48025628344425 109.97397251340804 l 17.033815090133736 9.193314253962557 a40.35633962031507,40.35633962031507 0 0,0 -0.3351951265699882,0.608476518730592 l -16.87304355411224 -9.485161291090956" fill="#fff316" stroke="none" /><path d="M 118.30583269289576 110.29060199501023 l 6.349179316125772 3.5691835729798833 a28.283621994993204,28.283621994993204 0 0,0 -0.24222633130381496,0.4223420259464358 l -6.286800988669576 -3.6779454447846334" fill="#ff5407" stroke="none" /><path d="M 118.12598468904814 110.60418214915192 l 3.814477956658697 2.2315708498183566 a25.419292990919942,25.419292990919942 0 0,0 -0.22419710419754202,0.37576724242841986 l -3.7754999767629274 -2.2969001861328806" fill="#ff2b04" stroke="none" /><path d="M 117.94076556474637 110.91462005526583 l 3.9322842937895683 2.392283030571399 a25.6028119520076,25.6028119520076 0 0,0 -0.23229719051376924,0.37453703614389317 l -3.8905224636078364 -2.459616398080566" fill="#ff2e04" stroke="none" /><path d="M 117.75023020441432 111.22182372390056 l 3.83043910147906 2.4216312626325345 a25.531728332799634,25.531728332799634 0 0,0 -0.23804705891145425,0.3694543217624411 l -3.7881871791905555 -2.4872071843164285" fill="#ff2d04" stroke="none" /><path d="M 117.55443506779139 111.5257021239791 l 3.9610401639659027 2.600697137485967 a25.738508708600072,25.738508708600072 0 0,0 -0.24635049151370128,0.3682605595393662 l -3.9156865670414804 -2.6684946112311403" fill="#ff3004" stroke="none" /><path d="M 117.35343817320211 111.8261652097733 l 5.213981494448448 3.553267423931477 a27.309620623335725,27.309620623335725 0 0,0 -0.2680752581447925,0.3861824033551008 l -5.15204532914152 -3.6424910894735976" fill="#ff4606" stroke="none" /><path d="M 116.93607887273984 112.41649034213515 l 3.591668434150171 2.63319017110616 a25.453512391144862,25.453512391144862 0 0,0 -0.2620969179819973,0.35112165290308217 l -3.5458102494730817 -2.694624703518557" fill="#ff2c04" stroke="none" /><line stroke="#e1ed5e" stroke-width="0.3" x1="143.8653032363475" x2="146.44561519142675" y1="172.8068346515853" y2="177.08958963109032" /><path d="M 144.38136562736335 173.6633856474863 a86.0,86.0 0 0,1 -40.68145358897372,12.25698825130547" fill="none" id="id18" stroke="none" /><text fill="#e1ed5e" style="font-size:6.75px; font-family:Arial;" text-anchor="middle"><textPath startOffset="21.466115282336833" xlink:href="#id18">June</textPath></text><line stroke="#e1ed5e" stroke-width="0.3" x1="102.19456741930631" x2="102.32365962044197" y1="184.97166512339345" y2="189.96999836594603" /><path d="M 102.22038585953345 185.97133177190398 a86.0,86.0 0 0,1 -42.740103519485714,-10.115201625700543" fill="none" id="id19" stroke="none" /><text fill="#e1ed5e" style="font-size:6.75px; font-family:Arial;" text-anchor="middle"><textPath startOffset="22.20632615414155" xlink:href="#id19">July</textPath></text><line stroke="#e1ed5e" stroke-width="0.3" x1="58.666819895761336" x2="56.23545636021788" y1="174.27360380694188" y2="178.64263932499728" /><path d="M 58.180547188652646 175.14741091055294 a86.0,86.0 0 0,1 -31.652253787137756,-30.449443065178592" fill="none" id="id20" stroke="none" /><text fill="#e1ed5e" style="font-size:6.75px; font-family:Arial;" text-anchor="middle"><textPath startOffset="22.20632615414155" xlink:href="#id20">August</textPath></text><line stroke="#e1ed5e" stroke-width="0.3" x1="26.63291911575756" x2="22.317208475507996" y1="142.92168965132927" y2="145.44649492493687" /><path d="M 25.769776987707644 143.4266507060508 a86.0,86.0 0 0,1 -11.730757126820373,-40.83630448921669" fill="none" id="id21" stroke="none" /><text fill="#e1ed5e" style="font-size:6.75px; font-family:Arial;" text-anchor="middle"><textPath startOffset="21.46611528233685" xlink:href="#id21">September</textPath></text><line stroke="#e1ed5e" stroke-width="0.3" x1="15.007084014347285" x2="10.007500721073583" y1="101.09737516637583" y2="101.16192664675087" /><path d="M 14.007167355692545 101.11028546245083 a86.0,86.0 0 0,1 10.666146001902534,-42.60595125391555" fill="none" id="id22" stroke="none" /><text fill="#e1ed5e" style="font-size:6.75px; font-family:Arial;" text-anchor="middle"><textPath startOffset="22.20632615414155" xlink:href="#id22">October</textPath></text><line stroke="#e1ed5e" stroke-width="0.3" x1="26.266209847984243" x2="21.928928074336255" y1="57.711370442889674" y2="55.22380399835377" /><path d="M 25.398753493254645 57.213857153982495 a86.0,86.0 0 0,1 29.58750427330803,-30.492523968695096" fill="none" id="id23" stroke="none" /><text fill="#e1ed5e" style="font-size:6.75px; font-family:Arial;" text-anchor="middle"><textPath startOffset="21.46611528233685" xlink:href="#id23">November</textPath></text><line stroke="#e1ed5e" stroke-width="0.3" x1="56.76296977257108" x2="54.21961505331056" y1="26.818313649435495" y2="22.513508569990535" /><path d="M 56.25429882871898 25.957352633546506 a86.0,86.0 0 0,1 42.26535254187918,-11.944610805530505" fill="none" id="id24" stroke="none" /><text fill="#e1ed5e" style="font-size:6.75px; font-family:Arial;" text-anchor="middle"><textPath startOffset="22.20632615414155" xlink:href="#id24">December</textPath></text></svg>